<svg width="36" height="35" viewBox="0 0 36 35" fill="none" xmlns="http://www.w3.org/2000/svg">
<path d="M14.9755 2.2302C9.48903 3.50458 4.58183 4.63828 4.0605 4.76241C3.24953 4.94446 3.07575 5.01894 2.78612 5.28375C2.60406 5.44925 2.38891 5.73061 2.30615 5.91266C2.1572 6.22712 2.14893 6.86431 2.14893 19.7488V33.2622H1.60276C0.766966 33.2622 0.411133 33.5518 0.411133 34.2221C0.411133 34.4373 0.477334 34.5862 0.651114 34.76L0.891095 35H5.94724H11.0034V32.1451C11.0034 28.9839 11.0034 28.9674 11.5578 28.446C12.0295 27.9992 12.2281 27.9661 14.4459 27.9661C16.7712 27.9661 17.0029 28.0075 17.4994 28.504C18.0125 29.017 18.0373 29.166 18.0373 32.2609V35H22.4645H26.8918V18.3172C26.8918 6.42573 26.867 1.53508 26.8008 1.27855C26.6932 0.84824 26.2629 0.318626 25.8822 0.136574C25.245 -0.153061 25.4353 -0.194435 14.9755 2.2302ZM10.5814 10.4723C10.9041 10.704 11.0034 11.0764 11.0034 12.0777C11.0034 13.6914 10.871 13.8155 9.24905 13.8155C7.51953 13.8155 7.44505 13.7493 7.44505 12.0777C7.44505 10.9109 7.52781 10.613 7.89191 10.4309C7.99122 10.3895 8.58703 10.3482 9.22422 10.3482C10.1759 10.3399 10.4241 10.3647 10.5814 10.4723ZM15.8775 10.4723C16.2002 10.704 16.2995 11.0764 16.2995 12.0777C16.2995 13.6914 16.1671 13.8155 14.5452 13.8155C12.8157 13.8155 12.7412 13.7493 12.7412 12.0777C12.7412 10.9109 12.8239 10.613 13.188 10.4309C13.2873 10.3895 13.8832 10.3482 14.5204 10.3482C15.472 10.3399 15.7203 10.3647 15.8775 10.4723ZM21.1736 10.4723C21.4963 10.704 21.5956 11.0764 21.5956 12.0777C21.5956 13.6914 21.4632 13.8155 19.8413 13.8155C18.1118 13.8155 18.0373 13.7493 18.0373 12.0777C18.0373 10.9109 18.1201 10.613 18.4842 10.4309C18.5835 10.3895 19.1793 10.3482 19.8165 10.3482C20.7681 10.3399 21.0164 10.3647 21.1736 10.4723ZM10.5814 15.7684C10.9041 16.0001 11.0034 16.3725 11.0034 17.3738C11.0034 18.9875 10.871 19.1116 9.24905 19.1116C7.51953 19.1116 7.44505 19.0454 7.44505 17.3738C7.44505 16.207 7.52781 15.9091 7.89191 15.7271C7.99122 15.6857 8.58703 15.6443 9.22422 15.6443C10.1759 15.636 10.4241 15.6609 10.5814 15.7684ZM15.8775 15.7684C16.2002 16.0001 16.2995 16.3725 16.2995 17.3738C16.2995 18.9875 16.1671 19.1116 14.5452 19.1116C12.8157 19.1116 12.7412 19.0454 12.7412 17.3738C12.7412 16.207 12.8239 15.9091 13.188 15.7271C13.2873 15.6857 13.8832 15.6443 14.5204 15.6443C15.472 15.636 15.7203 15.6609 15.8775 15.7684ZM21.1736 15.7684C21.4963 16.0001 21.5956 16.3725 21.5956 17.3738C21.5956 18.9875 21.4632 19.1116 19.8413 19.1116C18.1118 19.1116 18.0373 19.0454 18.0373 17.3738C18.0373 16.207 18.1201 15.9091 18.4842 15.7271C18.5835 15.6857 19.1793 15.6443 19.8165 15.6443C20.7681 15.636 21.0164 15.6609 21.1736 15.7684ZM10.5814 21.0646C10.9041 21.2963 11.0034 21.6686 11.0034 22.6699C11.0034 24.2836 10.871 24.4077 9.24905 24.4077C7.51953 24.4077 7.44505 24.3415 7.44505 22.6699C7.44505 21.5031 7.52781 21.2052 7.89191 21.0232C7.99122 20.9818 8.58703 20.9404 9.22422 20.9404C10.1759 20.9322 10.4241 20.957 10.5814 21.0646ZM15.8775 21.0646C16.2002 21.2963 16.2995 21.6686 16.2995 22.6699C16.2995 24.2836 16.1671 24.4077 14.5452 24.4077C12.8157 24.4077 12.7412 24.3415 12.7412 22.6699C12.7412 21.5031 12.8239 21.2052 13.188 21.0232C13.2873 20.9818 13.8832 20.9404 14.5204 20.9404C15.472 20.9322 15.7203 20.957 15.8775 21.0646ZM21.1736 21.0646C21.4963 21.2963 21.5956 21.6686 21.5956 22.6699C21.5956 24.2836 21.4632 24.4077 19.8413 24.4077C18.1118 24.4077 18.0373 24.3415 18.0373 22.6699C18.0373 21.5031 18.1201 21.2052 18.4842 21.0232C18.5835 20.9818 19.1793 20.9404 19.8165 20.9404C20.7681 20.9322 21.0164 20.957 21.1736 21.0646Z" fill="black"/>
<path d="M28.6299 20.6425V35H31.9069H35.1838L35.4238 34.76C35.6969 34.4869 35.7466 34.0732 35.548 33.6842C35.3824 33.3781 35.0928 33.2622 34.4639 33.2622H33.926L33.9095 21.3625L33.8846 9.45445L33.6364 9.04897C33.3881 8.65176 33.3467 8.61866 31.0711 7.4684C29.7967 6.82294 28.7292 6.29333 28.6961 6.28505C28.6547 6.28505 28.6299 12.748 28.6299 20.6425Z" fill="black"/>
<path d="M12.7412 32.3519V35H14.5204H16.2995L16.283 32.3685L16.2582 29.7452L14.5038 29.7204L12.7412 29.7039V32.3519Z" fill="black"/>
</svg>
