<svg width="33" height="36" viewBox="0 0 33 36" fill="none" xmlns="http://www.w3.org/2000/svg">
<path d="M14.8476 0.0935173C11.9211 0.557823 9.51513 2.30249 8.1996 4.89839C7.66494 5.96067 7.41168 6.87522 7.27802 8.17668L7.1936 8.99274L6.97551 9.02088C6.85592 9.04198 6.53231 9.07012 6.25795 9.09123C5.58259 9.14751 4.66805 9.42187 3.92234 9.79473C2.07918 10.7163 0.735502 12.3836 0.19381 14.4097C-0.0524132 15.3453 -0.0664831 16.886 0.165671 17.8075C0.693293 19.911 2.10029 21.6627 4.00676 22.5913C4.96351 23.0627 6.30016 23.3441 7.53831 23.3441H7.9182V24.7651V26.1932L7.46093 26.4324C6.16649 27.1007 5.463 28.6766 5.83585 30.0695C6.469 32.4403 9.3674 33.3056 11.1613 31.6594C12.0336 30.8574 12.3995 29.5981 12.097 28.4444C11.8859 27.6143 11.2457 26.8264 10.4789 26.4254L10.0287 26.1932V24.7651V23.3441H12.7371H15.4456V26.5098V29.6685L15.0516 29.8655C13.8627 30.4423 13.2085 31.589 13.2788 32.9609C13.2999 33.5025 13.3422 33.6643 13.5673 34.1357C14.2215 35.5075 15.6778 36.2391 17.1481 35.9296C17.7742 35.7959 18.2596 35.5216 18.752 35.0291C19.2867 34.4945 19.5611 33.9739 19.6807 33.2563C19.9058 31.9337 19.1671 30.4705 17.9852 29.9147L17.5631 29.7107V26.5239L17.5561 23.3441H20.2646H22.973L22.9589 24.7651L22.9378 26.1791L22.5509 26.3902C21.4113 27.0022 20.7781 28.0223 20.7781 29.2605C20.7781 30.182 21.0454 30.8433 21.6856 31.5116C22.3258 32.187 23.0715 32.5036 24.0212 32.5036C26.8845 32.5036 28.3055 29.0283 26.2794 27.0022C26.0614 26.7842 25.6955 26.5098 25.4775 26.4043L25.0835 26.2143V24.744V23.2737H25.393C25.5619 23.2737 25.9488 23.2245 26.2513 23.1682C29.009 22.6406 31.3728 20.6989 32.3999 18.1171C33.9757 14.1494 32.3084 9.64699 28.5447 7.70534C27.4543 7.14958 26.5608 6.88225 25.3508 6.77673L24.8091 6.72748L24.6192 6.15062C23.7187 3.41402 21.4816 1.21911 18.738 0.38195C17.528 0.00909805 16.0436 -0.0964279 14.8476 0.0935173ZM9.59252 28.353C9.85985 28.5218 10.099 28.9439 10.099 29.2605C10.099 29.563 9.86688 30.0273 9.62066 30.2031C9.47292 30.3087 9.31815 30.3438 8.95937 30.3438C8.53727 30.3438 8.46692 30.3227 8.26291 30.1328C7.83378 29.7248 7.73529 29.2253 8.00262 28.7539C8.34029 28.156 9.00158 27.9871 9.59252 28.353ZM24.5348 28.3107C24.9428 28.5218 25.2101 29.0987 25.0835 29.5278C24.9287 30.0836 24.5488 30.379 23.9931 30.379C23.3459 30.379 22.9027 29.9429 22.9027 29.3027C22.9027 28.4163 23.7398 27.9027 24.5348 28.3107ZM17.1199 31.8282C17.345 31.9971 17.6264 32.5176 17.6264 32.7709C17.6264 32.8694 17.5561 33.0945 17.4717 33.2634C17.1762 33.8473 16.3672 34.0724 15.8747 33.7066C15.1783 33.186 15.2064 32.2996 15.9381 31.8001C16.1421 31.6594 16.2476 31.6383 16.5571 31.6594C16.7752 31.6805 17.0074 31.7508 17.1199 31.8282Z" fill="#FF7A41"/>
</svg>
