<svg width="30" height="36" viewBox="0 0 30 36" fill="none" xmlns="http://www.w3.org/2000/svg">
<path d="M12.376 0.0817871C8.83774 0.314171 5.58436 1.04131 3.34298 2.09078C1.86622 2.78044 0.839236 3.67249 0.336987 4.69198L0.0446334 5.27669L0.0221447 8.94985C0.00715219 10.9738 0.0146484 12.7355 0.0446334 12.8629C0.254529 14.0023 2.45093 15.3891 5.43444 16.2587C8.49291 17.1582 11.5964 17.5106 15.7193 17.4431C18.2081 17.4056 18.8152 17.3606 20.7343 17.0833C25.262 16.4386 29.0401 14.8119 29.8272 13.1777L29.9997 12.8329L29.9772 9.0548L29.9547 5.27669L29.6623 4.69198C28.8527 3.04281 26.7463 1.80592 23.328 0.943855C20.2096 0.15675 16.1016 -0.16559 12.376 0.0817871ZM18.7478 2.58554C21.6338 2.89288 24.1376 3.51507 25.7343 4.31717C26.8587 4.87939 27.5934 5.53906 27.5934 5.99633C27.5934 6.82841 25.6218 7.96784 22.9832 8.6575C20.5244 9.30967 18.3355 9.54955 14.9997 9.54955C11.7013 9.54955 9.84223 9.34715 7.28601 8.72496C4.54238 8.0503 2.40595 6.8584 2.40595 5.99633C2.40595 5.38913 3.56787 4.53456 5.33699 3.8524C7.09111 3.17774 10.0371 2.63051 12.9382 2.44311C13.9277 2.38314 17.7133 2.47309 18.7478 2.58554Z" fill="#4D9FFF"/>
<path d="M0.0078125 19.3921C0.0078125 22.2856 0.0078125 22.3006 0.187723 22.6754C0.53255 23.41 1.67198 24.2796 3.14125 24.9243C9.31066 27.6379 20.54 27.6604 26.7619 24.9768C28.2612 24.3246 29.4681 23.4175 29.8129 22.6754C29.9928 22.3006 29.9928 22.2781 29.9928 19.3921C29.9928 17.7954 29.9778 16.491 29.9553 16.491C29.9403 16.491 29.7305 16.6109 29.4981 16.7609C27.8189 17.8328 24.9104 18.8148 21.8594 19.3396C19.7979 19.6919 18.5011 19.7969 15.7874 19.8418C11.7994 19.9018 9.07828 19.6394 5.92985 18.8748C3.90586 18.3876 1.70197 17.5255 0.510061 16.7684C0.277678 16.6184 0.0602863 16.491 0.0452938 16.491C0.022805 16.491 0.0078125 17.7954 0.0078125 19.3921Z" fill="#4D9FFF"/>
<path d="M0.0224888 28.3137L0.0449775 30.705L0.337331 31.2897C1.12444 32.8939 3.15592 34.1233 6.4093 34.9703C12.1664 36.4771 20.1274 36.2672 25.2324 34.4831C26.8366 33.9209 28.3733 33.0063 29.078 32.1892C29.2579 31.9868 29.5202 31.567 29.6777 31.2672L29.955 30.705L29.9775 28.3212L30 25.9299L29.5652 26.2072C29.3253 26.3646 28.6957 26.702 28.1559 26.9569C22.3913 29.7305 11.8141 30.1877 4.50525 27.9838C3.08846 27.5566 1.37931 26.8069 0.41979 26.1922L0 25.9299L0.0224888 28.3137Z" fill="#4D9FFF"/>
</svg>
