<svg width="36" height="46" viewBox="0 0 36 46" fill="none" xmlns="http://www.w3.org/2000/svg">
<path d="M22.0815 0.270313L21.8115 0.529467V7.12707V13.7139H24.9969H28.1824L28.1608 7.13786L28.1284 0.56186L27.8692 0.281112L27.6101 0.000362396H24.9753H22.3406L22.0815 0.270313Z" fill="#6865FF"/>
<path d="M13.8212 4.99985C13.3028 5.25901 13.2812 5.38858 13.2812 9.6862V13.7139H16.4667H19.6521V9.59982V5.48577L19.3389 5.17262L19.0258 4.85948H16.5531C14.793 4.85948 14.0155 4.90267 13.8212 4.99985Z" fill="#6865FF"/>
<path d="M5.12933 9.77258C4.85938 10.0317 4.85938 10.0641 4.85938 11.8782V13.7139H7.99081H11.1222V11.8782C11.1222 10.0641 11.1222 10.0317 10.8523 9.77258L10.5931 9.50263H7.99081H5.38848L5.12933 9.77258Z" fill="#6865FF"/>
<path d="M0.313143 15.8627C0.0647882 16.1218 0 16.273 0 16.6617C0 17.5904 0.226759 19.3936 0.49671 20.6246C1.13379 23.4753 2.10562 25.4081 4.58916 28.7771C6.91074 31.9302 7.54783 33.3339 7.55862 35.3207C7.55862 36.6165 7.11591 38.5062 6.43563 40.0827C6.23047 40.5686 6.20887 41.1409 6.40323 41.4C6.56521 41.6268 17.8168 46 18.2487 46C18.4107 46 18.6482 45.9136 18.767 45.8056C18.9829 45.6221 21.3153 41.2273 22.3627 39.0461L22.9134 37.9015H23.3561C23.6045 37.9015 24.6411 38.0742 25.6453 38.2902C27.7509 38.7329 28.9603 38.8085 29.619 38.5062C30.2345 38.2362 30.8284 37.6423 31.1091 37.0052C31.3359 36.5085 31.3683 36.2818 31.3683 35.04V33.6362L31.811 33.0963C32.4049 32.3837 32.5669 31.887 32.4049 31.2499C32.2861 30.7856 32.2969 30.7532 32.6317 30.3321C32.9664 29.9217 32.988 29.8245 32.9988 29.0579V28.2372L33.7547 28.1832C34.2082 28.1508 34.6077 28.0537 34.7805 27.9349C35.1692 27.6757 35.4607 26.9847 35.3852 26.5311C35.3528 26.326 34.6833 24.9762 33.895 23.5293C32.2645 20.5274 32.2429 20.4303 32.5345 18.6594C32.6317 18.1087 32.7396 17.3312 32.7828 16.9317C32.8476 16.2298 32.8476 16.1974 32.5237 15.8843L32.1997 15.5495H16.413H0.626286L0.313143 15.8627Z" fill="#6865FF"/>
</svg>
