<svg width="619" height="1094" viewBox="0 0 619 1094" fill="none" xmlns="http://www.w3.org/2000/svg">
<mask id="mask0_130_5804" style="mask-type:alpha" maskUnits="userSpaceOnUse" x="-323" y="0" width="942" height="1094">
<rect width="887" height="1047.63" transform="matrix(-0.998598 0.0529312 0.0529312 0.998598 562.758 0)" fill="url(#paint0_radial_130_5804)"/>
</mask>
<g mask="url(#mask0_130_5804)">
<g opacity="0.05">
<path d="M1111.53 1989.82C1111.52 1989.75 1111.48 1989.68 1111.44 1989.62C1111.39 1989.56 1111.33 1989.52 1111.26 1989.49C1075 1972.43 990.946 1865.03 944.071 1802.51C893.124 1734.37 859.489 1686 849.607 1666.13C845.808 1658.61 842.157 1650.96 838.611 1643.59C836.484 1639.2 834.505 1635 832.415 1630.74C820.412 1606.11 808.624 1584.18 797.25 1562.95C792.807 1554.66 788.223 1546.11 783.791 1537.72C690.912 1360.81 613.402 1268.26 539.755 1246.43C503.925 1235.79 468.525 1241.3 428.547 1263.64C391.377 1284.39 354.819 1317.28 316.125 1352.1C257.19 1405.09 196.267 1459.9 120.272 1486.57C49.1093 1511.54 1.87223 1553.45 -43.7242 1594.1C-97.0224 1641.39 -147.366 1686.07 -231.757 1703.82C-299.579 1718.09 -360.939 1717.64 -409.011 1702.36C-467.985 1683.65 -507.625 1643.44 -526.83 1582.79C-529.027 1575.65 -530.791 1568.4 -532.115 1561.05C-543.837 1499.2 -526.517 1426.25 -480.614 1344.24C-424.514 1243.78 -359.517 1148.73 -296.59 1056.87C-221.234 946.72 -143.265 832.877 -82.0261 711.204C-21.1766 589.692 4.35717 493.662 31.3778 380.789C44.0653 328.75 46.6849 274.765 39.0957 221.742C30.4872 165.166 9.7622 116.049 -22.4926 75.6887C-45.7347 46.4676 -75.4042 23.0021 -109.194 7.11734C-162.109 -17.5983 -227.262 -23.8975 -297.653 -11.0389C-358.969 0.43148 -417.532 23.5047 -470.193 56.9422C-477.025 61.3402 -483.861 65.7719 -491.081 70.4829C-562.276 116.654 -642.939 169.102 -731.984 162.715C-752.11 161.213 -771.907 156.773 -790.747 149.536C-839.239 131.266 -877.382 95.7952 -907.374 41.1102C-933.499 -6.52995 -949.817 -61.9983 -964.247 -111.025C-967.356 -121.639 -970.312 -131.644 -973.301 -141.501C-997.197 -219.878 -1015.55 -299.84 -1028.22 -380.794C-1041.27 -464.626 -1049.47 -549.143 -1052.78 -633.921C-1056.4 -719.216 -1054.48 -809.455 -1047.02 -910.012C-1036.19 -1052.7 -1014.2 -1194.32 -981.245 -1333.57C-981.231 -1333.62 -981.228 -1333.68 -981.237 -1333.74C-981.245 -1333.79 -981.264 -1333.85 -981.294 -1333.89C-981.323 -1333.94 -981.361 -1333.99 -981.407 -1334.02C-981.453 -1334.05 -981.505 -1334.08 -981.56 -1334.09C-981.615 -1334.1 -981.672 -1334.11 -981.728 -1334.1C-981.784 -1334.09 -981.838 -1334.07 -981.887 -1334.04C-981.936 -1334.01 -981.978 -1333.97 -982.012 -1333.93C-982.046 -1333.88 -982.07 -1333.83 -982.084 -1333.78C-1015.03 -1194.44 -1037.01 -1052.75 -1047.82 -909.98C-1055.34 -809.378 -1057.16 -719.062 -1053.62 -633.86C-1050.31 -549.042 -1042.11 -464.485 -1029.05 -380.614C-1016.36 -299.609 -998.001 -219.596 -974.098 -141.165C-971.12 -131.36 -968.135 -121.317 -965.026 -110.703C-950.614 -61.662 -934.274 -6.08986 -908.03 41.6983C-877.921 96.565 -839.607 132.173 -790.922 150.531C-772.008 157.795 -752.134 162.254 -731.929 163.769C-642.695 170.125 -561.758 117.488 -490.497 71.1717C-483.294 66.4755 -476.477 62.0587 -469.627 57.6458C-417.066 24.2719 -358.618 1.23797 -297.42 -10.2193C-227.26 -22.9845 -162.325 -16.6921 -109.552 7.92351C-75.8804 23.7504 -46.3168 47.1357 -23.1629 76.2583C8.98773 116.489 29.6417 165.48 38.2165 221.901C45.8179 274.799 43.2115 328.663 30.5385 380.58C3.52134 493.419 -21.9717 589.386 -82.7806 710.835C-144.131 832.293 -222.097 946.255 -297.356 1056.3C-360.242 1148.25 -425.331 1243.37 -481.488 1343.73C-527.48 1425.93 -544.869 1499.06 -533.087 1561.13C-531.738 1568.51 -529.948 1575.8 -527.728 1582.96C-508.433 1643.87 -468.596 1684.29 -409.328 1703.1C-361.089 1718.41 -299.651 1718.91 -231.622 1704.6C-146.937 1686.8 -96.5457 1641.99 -43.1549 1594.61C2.45682 1554.14 49.605 1512.27 120.601 1487.28C196.732 1460.59 260.429 1403.28 316.743 1352.64C355.4 1317.85 391.92 1284.99 428.983 1264.3C468.78 1242.07 503.902 1236.63 539.486 1247.2C612.833 1268.99 690.242 1361.38 783.071 1537.97C787.518 1546.38 792.174 1555.05 796.546 1563.21C807.979 1584.51 819.674 1606.37 831.696 1630.98C833.759 1635.24 835.819 1639.52 837.877 1643.82C841.419 1651.22 845.088 1658.85 848.887 1666.38C858.799 1686.28 892.445 1734.7 943.456 1802.89C990.376 1865.46 1074.55 1972.97 1110.97 1990.12C1111.02 1990.14 1111.08 1990.16 1111.14 1990.16C1111.19 1990.17 1111.25 1990.16 1111.3 1990.14C1111.36 1990.13 1111.41 1990.1 1111.45 1990.06C1111.49 1990.02 1111.53 1989.98 1111.55 1989.93C1111.55 1989.89 1111.54 1989.86 1111.53 1989.82Z" fill="url(#paint1_linear_130_5804)" fill-opacity="0.4"/>
</g>
<g opacity="0.1">
<path d="M1096.74 1994.46C1096.73 1994.38 1096.7 1994.31 1096.65 1994.24C1096.6 1994.18 1096.54 1994.14 1096.46 1994.11C1061.01 1973.55 985.756 1883.75 928.853 1812.07C883.573 1754.65 844.46 1705.04 832.46 1683.04C828.133 1675.08 824.076 1666.82 820.143 1658.82C818.426 1655.32 816.709 1651.82 814.974 1648.33C804.838 1628.15 794.892 1610.6 785.252 1593.65C778.338 1581.49 771.808 1570 765.283 1557.68C692.571 1419.75 629.369 1332.58 571.855 1291.34C545.176 1272.2 519.34 1262.31 492.87 1261.06C469.228 1259.92 444.841 1265.81 418.296 1278.99C380.723 1297.69 343.541 1328.85 304.166 1361.84C248.558 1408.47 185.536 1461.27 110.475 1485.88C40.6574 1508.74 -6.94886 1547.34 -53.1071 1584.75C-107.661 1628.97 -159.196 1670.76 -243.176 1685.5C-310.972 1697.33 -371.72 1694.84 -418.95 1678.18C-476.566 1657.86 -514.282 1617.19 -531.035 1557.32C-532.958 1550.25 -534.45 1543.08 -535.503 1535.84C-540.699 1502.84 -536.958 1466.13 -524.69 1427.01C-514.572 1394.47 -498.39 1360.25 -476.766 1325.1C-421.845 1235.84 -358.698 1151.16 -297.611 1069.26C-213.541 956.513 -126.619 839.921 -63.7596 713.742C-1.30254 588.313 16.1734 490.836 34.8215 387.688C44.1646 336.763 44.0288 284.552 34.4211 233.677C23.6274 178.858 1.65208 131.144 -30.8858 91.8348C-54.5537 63.1536 -83.9686 39.75 -117.235 23.1325C-168.649 -2.33319 -231.493 -11.2222 -298.911 -2.55443C-356.705 5.15964 -412.542 23.6359 -463.53 51.9177C-471.179 56.2104 -478.839 60.6033 -486.932 65.2535C-553.998 103.742 -629.987 147.365 -715.067 138.552C-734.923 136.367 -754.393 131.511 -772.95 124.116C-819.452 106.045 -857.135 72.889 -888.33 22.5867C-915.476 -21.2425 -934.016 -72.1175 -950.313 -117.019C-954.766 -129.266 -958.973 -140.827 -963.265 -152.076C-1017.25 -293.3 -1048.1 -437.392 -1063.29 -619.272C-1070.04 -699.244 -1070.84 -788.492 -1065.9 -892.382C-1059.7 -1028.52 -1040.29 -1170.68 -1008.07 -1314.82C-1008.04 -1314.89 -1008.03 -1314.96 -1008.03 -1315.04C-1008.04 -1315.11 -1008.06 -1315.18 -1008.09 -1315.25C-1008.12 -1315.31 -1008.17 -1315.37 -1008.23 -1315.41C-1008.29 -1315.46 -1008.36 -1315.49 -1008.43 -1315.5C-1008.5 -1315.52 -1008.57 -1315.52 -1008.65 -1315.5C-1008.72 -1315.49 -1008.78 -1315.45 -1008.84 -1315.41C-1008.9 -1315.36 -1008.95 -1315.3 -1008.98 -1315.24C-1009.01 -1315.17 -1009.03 -1315.1 -1009.03 -1315.03C-1041.27 -1170.84 -1060.73 -1028.67 -1066.89 -892.406C-1071.79 -788.545 -1070.99 -699.126 -1064.3 -619.196C-1049.06 -437.226 -1018.2 -293.048 -964.181 -151.736C-959.904 -140.505 -955.682 -128.926 -951.229 -116.679C-934.943 -71.8291 -916.366 -20.8318 -889.145 23.0901C-857.898 73.5333 -819.999 106.882 -773.255 125.063C-754.607 132.529 -735.031 137.425 -715.064 139.617C-629.668 148.482 -553.516 104.758 -486.343 66.2134C-478.25 61.563 -470.59 57.1701 -462.942 52.8772C-323.272 -25.4438 -189.562 -11.4957 -117.562 24.128C-84.4166 40.6609 -55.1147 63.9741 -31.5555 92.5566C0.892889 131.754 22.7827 179.324 33.5609 233.973C43.1401 284.731 43.2717 336.821 33.9491 387.627C15.39 490.734 -2.14175 588.104 -64.5511 713.403C-127.46 839.408 -214.322 955.921 -298.407 1068.64C-359.498 1150.58 -422.682 1235.29 -477.651 1324.53C-499.316 1359.74 -515.497 1394.11 -525.701 1426.66C-538.001 1465.93 -541.643 1502.65 -536.482 1535.99C-535.423 1543.27 -533.925 1550.49 -531.995 1557.6C-515.141 1617.79 -477.229 1658.66 -419.27 1679.11C-371.848 1695.86 -310.932 1698.37 -243.011 1686.46C-158.774 1671.7 -107.146 1629.84 -52.4629 1585.51C-6.45281 1548.22 41.1348 1509.63 110.797 1486.81C186.032 1462.15 249.113 1409.27 304.811 1362.6C344.13 1329.66 381.33 1298.48 418.74 1279.89C513.462 1232.78 608.478 1262.06 764.516 1558.05C771.055 1570.39 777.585 1581.88 784.514 1594.06C794.14 1610.99 804.108 1628.5 814.192 1648.69C815.927 1652.17 817.644 1655.67 819.361 1659.17C823.294 1667.17 827.366 1675.45 831.693 1683.41C843.734 1705.51 882.846 1755.11 928.19 1812.58C985.149 1884.36 1060.5 1974.24 1096.07 1994.72C1096.19 1994.79 1096.32 1994.81 1096.45 1994.77C1096.58 1994.74 1096.69 1994.66 1096.75 1994.54C1096.75 1994.52 1096.75 1994.49 1096.74 1994.46Z" fill="url(#paint2_linear_130_5804)" fill-opacity="0.4"/>
</g>
<g opacity="0.14">
<path d="M1081.89 1999.12C1081.85 1998.97 1081.74 1998.84 1081.61 1998.77C1051.64 1978.31 991.915 1915.37 913.585 1821.64C902.511 1808.41 892.193 1796.15 882.259 1784.41C849.064 1745.08 825.082 1716.67 815.26 1699.99C810.592 1692.06 806.52 1683.93 802.199 1675.3C800.658 1672.2 799.087 1669.08 797.482 1665.94C787.882 1647.22 778.386 1631.59 769.222 1616.48C761.408 1603.59 754.019 1591.44 746.703 1577.69C674.506 1440.78 614.728 1357.1 558.984 1314.35C509.596 1276.58 463.038 1270.42 408.025 1294.39C370.042 1310.95 332.153 1340.36 292.028 1371.54C237.014 1414.25 174.67 1462.66 100.646 1485.18C32.2854 1505.99 -15.7861 1541.39 -62.1426 1575.48C-118.092 1616.68 -170.953 1655.58 -254.552 1667.26C-322.224 1676.71 -382.496 1672.16 -428.879 1654.08C-485.075 1632.19 -520.88 1591.05 -535.2 1531.97C-536.931 1524.99 -538.116 1517.88 -538.747 1510.72C-545.403 1432.23 -506.558 1356.09 -472.805 1306.03C-418.447 1225.39 -355.987 1148.61 -295.669 1074.43C-199.544 956.203 -108.727 844.53 -45.4649 716.349C14.9664 593.862 25.7609 501.576 38.3081 394.674C51.2007 285.053 22.9249 180.674 -39.3062 108.095C-63.327 79.9087 -92.4787 56.5371 -125.214 39.2205C-175.751 12.5316 -234.594 1.33794 -300.078 6.04034C-354.385 10.1257 -407.502 24.0247 -456.851 47.063C-465.313 51.0646 -473.827 55.2298 -482.86 59.66C-545.749 90.4877 -617.044 125.425 -698.155 114.303C-717.785 111.418 -736.979 106.102 -755.296 98.477C-799.686 80.5671 -836.859 49.5624 -868.846 3.77174C-896.873 -36.2992 -917.397 -82.5887 -935.502 -123.444C-941.63 -137.241 -947.403 -150.256 -953.301 -162.744C-1017.35 -298.433 -1044.75 -437.283 -1073.98 -604.695C-1088.68 -688.976 -1086.85 -778.261 -1085.1 -864.647L-1084.88 -874.731C-1082.69 -1007.13 -1065.37 -1152.73 -1035.05 -1296.08C-1035.02 -1296.22 -1035.05 -1296.37 -1035.13 -1296.49C-1035.2 -1296.61 -1035.33 -1296.7 -1035.47 -1296.73C-1035.61 -1296.76 -1035.76 -1296.73 -1035.88 -1296.66C-1036.01 -1296.58 -1036.09 -1296.45 -1036.12 -1296.31C-1066.48 -1152.93 -1083.81 -1007.23 -1086.09 -874.862L-1086.3 -864.777C-1088.06 -778.358 -1089.86 -689.003 -1075.21 -604.558C-1046.04 -437.034 -1018.6 -298.095 -954.499 -162.3C-948.616 -149.83 -942.827 -136.796 -936.714 -123.017C-918.58 -82.1251 -898.03 -35.7652 -869.962 4.39459C-837.766 50.4446 -800.436 81.5676 -755.838 99.5843C-737.408 107.198 -718.105 112.497 -698.371 115.362C-616.911 126.538 -545.471 91.5152 -482.438 60.6015C-473.424 56.1864 -464.928 52.0361 -456.447 48.0194C-407.221 25.0305 -354.233 11.163 -300.056 7.09088C-234.75 2.47052 -176.105 13.6087 -125.727 40.2131C-93.1046 57.441 -64.0448 80.6989 -40.0876 108.754C21.8312 181.097 50.0471 285.25 37.2798 394.495C24.7803 501.267 13.993 593.486 -46.3831 715.776C-109.587 843.879 -200.333 955.526 -296.466 1073.67C-356.787 1147.88 -419.099 1224.54 -473.664 1305.38C-507.517 1355.58 -546.488 1431.95 -539.782 1510.76C-539.146 1518.01 -537.935 1525.19 -536.161 1532.25C-521.836 1591.76 -485.759 1633.04 -429.162 1655.13C-382.619 1673.29 -322.147 1677.87 -254.286 1668.39C-170.394 1656.65 -117.44 1617.68 -61.3828 1576.43C-15.0823 1542.23 32.9005 1507.02 100.994 1486.34C175.229 1463.74 237.662 1415.28 292.754 1372.48C332.82 1341.38 370.653 1312.01 408.514 1295.49C463.101 1271.71 509.31 1277.82 558.326 1315.28C613.98 1357.92 673.591 1441.42 745.799 1578.23C753.115 1591.99 760.537 1604.13 768.333 1617.05C777.46 1632.18 786.974 1647.8 796.563 1666.47C798.153 1669.58 799.724 1672.71 801.28 1675.82C805.665 1684.49 809.691 1692.57 814.371 1700.55C824.233 1717.32 848.246 1745.77 881.489 1785.12C891.435 1796.91 901.741 1809.12 912.815 1822.35C958.239 1876.73 1040.51 1972.02 1081.05 1999.67C1081.17 1999.75 1081.32 1999.78 1081.47 1999.76C1081.61 1999.73 1081.74 1999.65 1081.83 1999.53C1081.9 1999.41 1081.92 1999.26 1081.89 1999.12Z" fill="url(#paint3_linear_130_5804)" fill-opacity="0.4"/>
</g>
<g opacity="0.19">
<path d="M1067.03 2003.81C1066.98 2003.66 1066.87 2003.53 1066.73 2003.44C1033.56 1977.64 972.128 1914.85 898.313 1831.24C880.487 1811.06 864.384 1793.54 850.19 1778.06C825.07 1750.62 806.826 1730.87 797.989 1716.96C793.054 1709.16 788.826 1700.91 784.333 1692.14C782.878 1689.34 781.431 1686.48 779.856 1683.54C770.485 1665.67 761.185 1651.35 752.188 1637.51C743.754 1624.56 735.8 1612.32 728.022 1597.69C656.679 1463.51 598.752 1380.85 545.756 1337.53C497.496 1298.09 451.803 1289.55 397.582 1309.81C359.159 1324.19 320.479 1351.86 279.528 1381.14C225.149 1420.01 163.547 1464.07 90.6238 1484.55C24.0425 1503.28 -24.2199 1535.31 -70.9708 1566.33C-128.429 1604.44 -182.704 1640.48 -266.025 1649.13C-333.6 1656.12 -393.45 1649.55 -438.932 1630.02C-493.766 1606.48 -527.591 1565.01 -539.477 1506.71C-540.793 1499.75 -541.674 1492.71 -542.114 1485.65C-545.351 1444.69 -535.332 1377.04 -468.9 1286.99C-414.438 1213.2 -352.187 1143.02 -291.996 1075.17C-188.189 958.11 -90.0946 847.597 -27.2419 718.831C31.9246 598.032 36.3426 508.436 41.5575 404.778L41.7528 401.571C44.266 353.025 38.6161 304.402 25.0386 257.726C9.85274 206.471 -14.6204 161.528 -47.7172 124.103C-72.1838 96.506 -101.115 73.2182 -133.302 55.2127C-182.287 27.762 -238.879 14.0575 -301.517 14.4875C-352.34 15.0614 -402.687 24.3566 -450.365 41.9677C-459.738 45.4819 -469.207 49.2563 -479.24 53.24C-537.959 76.6261 -604.519 103.118 -681.549 89.9029C-700.859 86.3145 -719.707 80.5754 -737.74 72.7935C-832.364 33.349 -878.696 -53.3623 -919.574 -129.882C-927.822 -145.329 -935.623 -159.916 -943.595 -173.694C-1015.06 -297.255 -1055.96 -417.979 -1084.8 -590.384C-1100.36 -683.667 -1103.25 -782.117 -1104.01 -857.451C-1105.36 -989.287 -1090.85 -1134.58 -1062.1 -1277.64C-1062.09 -1277.72 -1062.09 -1277.8 -1062.12 -1277.88C-1062.14 -1277.96 -1062.18 -1278.03 -1062.23 -1278.09C-1062.28 -1278.15 -1062.34 -1278.2 -1062.41 -1278.24C-1062.48 -1278.28 -1062.56 -1278.3 -1062.64 -1278.31C-1062.79 -1278.32 -1062.95 -1278.27 -1063.08 -1278.17C-1063.2 -1278.07 -1063.28 -1277.93 -1063.3 -1277.77C-1092.06 -1134.65 -1106.58 -989.25 -1105.24 -857.347C-1104.49 -781.947 -1101.56 -683.408 -1085.99 -590.091C-1057.15 -417.515 -1016.19 -296.684 -944.696 -173.053C-936.701 -159.323 -928.938 -144.706 -920.69 -129.259C-879.655 -52.469 -833.3 34.3463 -738.271 73.9529C-720.121 81.7995 -701.147 87.5809 -681.706 91.1875C-604.419 104.532 -537.699 77.9728 -478.821 54.5193C-468.803 50.5172 -459.319 46.7615 -449.98 43.2434C-402.43 25.6839 -352.217 16.4253 -301.532 15.872C-239.128 15.4166 -182.732 29.066 -133.941 56.4281C-101.852 74.3467 -73.0166 97.552 -48.65 125.066C-15.6948 162.24 8.65563 207.068 23.7926 258.149C37.3225 304.698 42.9469 353.187 40.4316 401.597L40.2547 404.789C35.0729 508.298 30.5728 597.716 -28.4271 718.381C-91.2544 846.913 -189.278 957.4 -293.042 1074.36C-353.269 1142.24 -415.479 1212.51 -470.037 1286.26C-506.827 1336.11 -549.495 1411.18 -543.465 1485.63C-543.005 1492.75 -542.118 1499.83 -540.81 1506.83C-528.833 1565.55 -494.755 1607.34 -439.531 1631.02C-393.566 1650.62 -333.663 1657.33 -265.774 1650.24C-182.215 1641.58 -127.872 1605.55 -70.2855 1567.18C-23.6977 1536.26 24.4906 1504.3 91.0498 1485.61C164.166 1465.07 225.875 1420.95 280.313 1382C321.19 1352.78 359.815 1325.15 398.093 1310.86C451.877 1290.74 497.203 1299.24 545.091 1338.37C597.945 1381.74 655.823 1464.22 727.099 1598.25C734.922 1612.94 742.891 1625.19 751.307 1638.16C760.304 1651.99 769.532 1666.19 778.934 1684.1C780.448 1686.97 781.896 1689.83 783.411 1692.7C787.918 1701.49 792.161 1709.75 797.122 1717.63C805.967 1731.62 824.278 1751.38 849.457 1778.89C863.636 1794.36 879.74 1811.87 897.55 1832.04C971.458 1915.72 1032.9 1978.56 1066.17 2004.45C1066.3 2004.54 1066.46 2004.58 1066.62 2004.56C1066.78 2004.54 1066.92 2004.46 1067.02 2004.34C1067.09 2004.17 1067.09 2003.98 1067.03 2003.81Z" fill="url(#paint4_linear_130_5804)" fill-opacity="0.4"/>
</g>
<g opacity="0.24">
<path d="M1052.16 2008.49C1052.11 2008.33 1052 2008.2 1051.86 2008.12C1010.11 1971.92 947.038 1909.44 883.007 1840.84C861.06 1817.35 841.489 1797.99 825.672 1782.35C804.497 1761.41 789.183 1746.28 780.806 1733.9C775.591 1725.86 770.833 1717.54 766.553 1708.97C765.206 1706.43 763.848 1703.83 762.438 1701.24C754.127 1686.1 744.877 1671.48 734.743 1657.49C725.524 1644.78 717.106 1631.5 709.538 1617.74C639.378 1486.06 583.29 1404.36 533.096 1360.61C485.9 1319.46 440.973 1308.54 387.473 1325.26C348.583 1337.39 309.034 1363.26 267.139 1390.65C213.492 1425.73 152.661 1465.48 80.9571 1483.91C15.9811 1500.62 -32.3794 1529.34 -79.1614 1557.06C-138.301 1592.13 -194.199 1625.2 -277.317 1630.88C-344.839 1635.37 -404.235 1626.78 -448.819 1605.83C-502.247 1580.7 -534.15 1538.81 -543.603 1481.29C-544.599 1474.39 -545.183 1467.44 -545.352 1460.47C-547.039 1420.19 -534.47 1354.11 -464.977 1267.95C-410.105 1200.05 -347.55 1135.32 -287.007 1072.8C-175.86 958.043 -70.8749 849.612 -8.85555 721.516C49.3329 601.321 47.5528 514.485 45.3936 413.832L45.2865 408.58C44.0317 348.406 29.2298 233.553 -55.9793 140.449C-80.8624 113.406 -109.581 90.1621 -141.216 71.4612C-188.584 43.29 -242.927 27.0738 -302.725 23.2986C-350.132 20.4063 -397.697 25.0952 -443.627 37.1879C-454.001 39.9516 -464.618 43.0941 -475.848 46.4241C-530.355 62.6098 -591.961 80.8151 -664.494 65.7211C-683.581 61.4562 -702.188 55.2718 -720.031 47.2627C-809.256 8.84276 -858.405 -68.1 -901.724 -135.976C-912.679 -153.12 -923.007 -169.333 -933.648 -184.38C-974.371 -242.053 -1004.77 -296.073 -1029.4 -354.402C-1055.98 -417.388 -1076.95 -487.745 -1095.4 -575.813C-1114.05 -664.697 -1119.8 -759.165 -1122.96 -839.862C-1128.06 -969.958 -1116.3 -1114.84 -1088.97 -1258.92C-1088.96 -1259.09 -1089.01 -1259.27 -1089.12 -1259.41C-1089.24 -1259.55 -1089.4 -1259.64 -1089.57 -1259.66C-1089.74 -1259.67 -1089.91 -1259.62 -1090.05 -1259.51C-1090.18 -1259.41 -1090.27 -1259.25 -1090.29 -1259.08C-1117.65 -1114.89 -1129.39 -969.865 -1124.29 -839.703C-1121.13 -758.953 -1115.38 -664.419 -1096.73 -575.45C-1078.21 -487.256 -1057.21 -416.795 -1030.61 -353.739C-1005.98 -295.376 -975.52 -241.282 -934.737 -183.534C-924.144 -168.51 -913.812 -152.33 -902.858 -135.186C-859.423 -67.1283 -810.251 9.91825 -720.562 48.5743C-702.636 56.6242 -683.942 62.8406 -664.765 67.1286C-591.923 82.3406 -530.047 63.9785 -475.439 47.8039C-464.21 44.4738 -453.626 41.3274 -443.234 38.5488C-397.437 26.4897 -350.011 21.8089 -302.74 24.683C-243.086 28.5441 -189.07 44.6572 -141.836 72.6617C-110.354 91.2592 -81.7703 114.374 -56.9976 141.268C27.8764 234.032 42.6625 348.561 43.9021 408.565L44.0277 413.802C46.1268 514.229 47.9513 600.969 -10.1042 720.874C-71.9611 848.717 -176.909 957.118 -288.001 1071.83C-348.562 1134.37 -411.181 1199.05 -466.033 1267.09C-504.491 1314.86 -549.734 1387.19 -546.551 1460.45C-546.415 1467.49 -545.855 1474.52 -544.876 1481.49C-535.336 1539.46 -503.198 1581.68 -449.35 1606.99C-404.558 1628.05 -345.039 1636.75 -277.217 1632.15C-193.747 1626.48 -137.771 1593.17 -78.483 1558.13C-31.7863 1530.41 16.4965 1501.79 81.2982 1485.13C153.188 1466.7 214.096 1426.86 267.836 1391.71C309.638 1364.39 349.102 1338.53 387.847 1326.49C440.869 1309.97 485.418 1320.8 532.212 1361.6C582.313 1405.26 638.236 1486.76 708.444 1618.32C716.027 1632.13 724.481 1645.45 733.754 1658.19C743.826 1672.15 753.041 1686.71 761.348 1701.78C762.755 1704.4 764.098 1706.98 765.445 1709.53C769.773 1718.14 774.56 1726.5 779.783 1734.6C788.25 1747.09 803.594 1762.26 824.847 1783.26C840.604 1798.82 860.223 1818.21 882.137 1841.69C946.153 1910.28 1009.3 1972.85 1051.08 2009.08C1051.21 2009.2 1051.39 2009.25 1051.57 2009.24C1051.75 2009.23 1051.91 2009.15 1052.03 2009.02C1052.13 2008.86 1052.18 2008.67 1052.16 2008.49Z" fill="url(#paint5_linear_130_5804)" fill-opacity="0.4"/>
</g>
<g opacity="0.29">
<path d="M1037.3 2013.18C1037.28 2013.01 1037.21 2012.84 1037.08 2012.72C1027.38 2003.51 1016.43 1993.31 1003.81 1981.53C967.273 1947.48 921.848 1905.12 867.823 1850.4C843.044 1825.29 821.748 1806.4 804.615 1791.21C785.645 1774.41 771.95 1762.28 763.735 1750.89C758.199 1742.83 753.194 1734.42 748.75 1725.71C747.512 1723.41 746.243 1721.07 744.96 1718.72C736.722 1704.1 727.394 1690.12 717.055 1676.9C707.33 1664.56 698.621 1651.45 691.012 1637.71C620.843 1506.58 568.231 1428.21 520.262 1383.75C474.104 1340.82 429.957 1327.53 377.13 1340.69C337.733 1350.48 297.165 1374.52 254.181 1399.95C201.293 1431.3 141.36 1466.83 71.0607 1483.21C8.02766 1497.9 -40.29 1523.26 -86.9954 1547.77C-148.003 1579.8 -205.638 1610.03 -288.835 1612.55C-356.423 1614.67 -415.216 1603.96 -458.868 1581.58C-510.857 1554.87 -540.827 1512.61 -547.796 1455.87C-548.458 1449.34 -548.733 1442.76 -548.621 1436.19L-548.62 1435.25C-548.709 1395.67 -533.563 1331.24 -460.998 1248.86C-405.534 1185.94 -342.323 1125.94 -281.037 1068.09C-162.878 956.323 -51.2749 850.773 9.48255 724.027C65.2136 607.792 66.1481 522.889 48.8052 415.418C30.3556 300.847 -5.63175 218.654 -64.323 156.616C-89.5596 130.116 -118.05 106.918 -149.114 87.5755C-257.527 19.2376 -375.915 23.6162 -436.848 32.3443C-448.472 34.0089 -460.517 36.1351 -473.185 38.5487C-523.202 47.7667 -579.945 58.2166 -647.524 41.5466C-666.318 36.5865 -684.635 29.9691 -702.259 21.7721C-785.627 -15.3202 -836.684 -82.6152 -881.691 -141.936C-896.05 -160.885 -909.601 -178.715 -923.637 -195.026C-1004.04 -288.303 -1059.64 -378.115 -1105.93 -561.184C-1127.62 -646.916 -1136.2 -741.183 -1141.75 -822.122C-1152.89 -984.176 -1133.75 -1138.84 -1115.73 -1240.05C-1115.72 -1240.14 -1115.73 -1240.24 -1115.75 -1240.33C-1115.78 -1240.42 -1115.82 -1240.51 -1115.88 -1240.58C-1115.94 -1240.65 -1116.02 -1240.72 -1116.1 -1240.76C-1116.19 -1240.81 -1116.28 -1240.83 -1116.37 -1240.84C-1116.56 -1240.86 -1116.74 -1240.8 -1116.88 -1240.68C-1117.03 -1240.57 -1117.12 -1240.4 -1117.15 -1240.22C-1135.18 -1138.91 -1154.33 -984.113 -1143.17 -821.922C-1137.66 -740.952 -1129 -646.508 -1107.27 -560.653C-1060.91 -377.306 -1005.21 -287.365 -924.688 -193.906C-910.708 -177.703 -897.205 -159.742 -882.783 -140.905C-837.645 -81.384 -786.514 -13.9965 -702.73 23.3099C-685.038 31.5392 -666.65 38.1812 -647.783 43.158C-579.877 59.931 -522.967 49.4994 -472.806 40.1955C-460.115 37.886 -448.156 35.6152 -436.521 34.0025C-375.78 25.3381 -257.748 20.9716 -149.733 89.0804C-118.758 108.378 -90.3465 131.516 -65.1768 157.943C-6.6791 219.74 29.1147 301.693 47.5376 416.041C64.7979 523.182 63.9184 607.888 8.3944 723.774C-52.4907 849.982 -164.016 955.439 -282.064 1067.12C-343.354 1125 -406.583 1185.01 -462.103 1247.98C-502.311 1293.65 -550.2 1363.26 -550.052 1435.36L-550.054 1436.31C-550.211 1442.95 -549.955 1449.6 -549.287 1456.22C-542.198 1513.41 -512.001 1556.06 -459.51 1582.98C-415.561 1605.58 -356.523 1616.22 -288.772 1614.14C-205.293 1611.53 -147.528 1581.19 -86.3794 1549.11C-39.7296 1524.63 8.49915 1499.32 71.3244 1484.68C141.902 1468.22 201.942 1432.64 254.92 1401.24C297.83 1375.87 338.279 1351.84 377.468 1342.09C429.757 1329.07 473.492 1342.26 519.266 1384.83C567.024 1429.21 619.583 1507.44 689.719 1638.41C697.366 1652.26 706.128 1665.46 715.918 1677.88C726.216 1691.06 735.51 1704.99 743.719 1719.57C745.036 1721.92 746.271 1724.25 747.509 1726.55C751.955 1735.24 756.957 1743.64 762.483 1751.69C770.846 1763.26 784.638 1775.43 803.631 1792.33C820.734 1807.49 842.015 1826.36 866.72 1851.38C920.741 1906.14 966.199 1948.5 1002.74 1982.55C1015.33 1994.41 1026.33 2004.56 1036 2013.74C1036.07 2013.8 1036.15 2013.85 1036.24 2013.89C1036.33 2013.92 1036.42 2013.94 1036.52 2013.94C1036.61 2013.94 1036.71 2013.91 1036.79 2013.88C1036.88 2013.84 1036.96 2013.78 1037.02 2013.71C1037.1 2013.65 1037.17 2013.57 1037.22 2013.48C1037.27 2013.39 1037.3 2013.29 1037.3 2013.18Z" fill="url(#paint6_linear_130_5804)" fill-opacity="0.4"/>
</g>
<g opacity="0.33">
<path d="M1022.49 2017.9C1022.45 2017.74 1022.38 2017.59 1022.28 2017.46C1002.24 1996.79 976.983 1974.08 947.754 1947.75C920.003 1922.77 888.556 1894.45 852.68 1859.9C831.266 1839.55 808.786 1820.35 785.334 1802.39C767.686 1788.52 754.943 1778.52 746.6 1767.7C740.8 1759.7 735.605 1751.27 731.058 1742.5C729.865 1740.41 728.809 1738.45 727.646 1736.4C719.477 1722.2 710.036 1708.76 699.441 1696.26C689.23 1684.34 680.239 1671.42 672.602 1657.7C538.484 1407.92 467.098 1337.46 367.069 1356.01C327.116 1363.45 285.397 1385.63 241.22 1409.12C189.204 1436.79 130.155 1468.22 61.3789 1482.55C0.574839 1495.23 -47.4512 1517.27 -93.9092 1538.57C-157.052 1567.53 -216.673 1594.88 -299.912 1594.5C-370.861 1594.11 -536.097 1577.67 -551.33 1435.29C-551.504 1433.79 -551.661 1432.26 -551.78 1430.71C-552.194 1424.52 -552.232 1418.31 -551.894 1412.11L-551.803 1410.17C-550.286 1371.38 -532.597 1308.59 -457.023 1229.8C-400.775 1171.19 -336.481 1115.53 -274.311 1061.71C-149.376 953.543 -31.3616 851.376 27.8276 726.624C85.0426 606.053 69.5373 519.217 53.2058 427.372L52.2719 422.42C35.2347 326.324 -9.1881 237.588 -72.6674 172.784C-98.3521 146.816 -126.684 123.606 -157.199 103.535C-233.516 52.5353 -325.389 26.8604 -430.2 27.3013C-443.491 27.3486 -457.392 28.1917 -472.091 29.0667C-517.416 31.7953 -568.763 34.8859 -630.745 17.0982C-649.195 11.3983 -667.199 4.34013 -684.607 -4.01834C-761.509 -39.3282 -813.326 -97.1048 -859.068 -148.088C-877.723 -168.888 -895.339 -188.511 -913.873 -206.053C-1005.56 -292.845 -1065.04 -372.885 -1116.7 -546.936C-1141.39 -630.102 -1152.87 -724.023 -1160.89 -804.927C-1173.19 -929.532 -1166.73 -1077.59 -1142.82 -1221.73C-1142.8 -1221.84 -1142.81 -1221.94 -1142.84 -1222.04C-1142.87 -1222.13 -1142.91 -1222.23 -1142.98 -1222.31C-1143.04 -1222.39 -1143.12 -1222.45 -1143.21 -1222.5C-1143.3 -1222.55 -1143.4 -1222.58 -1143.5 -1222.59C-1143.71 -1222.61 -1143.91 -1222.54 -1144.07 -1222.42C-1144.23 -1222.29 -1144.33 -1222.1 -1144.35 -1221.9C-1168.33 -1077.56 -1174.76 -929.431 -1162.52 -804.681C-1154.53 -723.696 -1143.01 -629.686 -1118.3 -546.415C-1066.5 -372.079 -1006.94 -291.828 -915.035 -204.844C-896.564 -187.342 -879.037 -167.678 -860.323 -146.956C-814.492 -95.8623 -762.552 -37.9708 -685.361 -2.52814C-667.852 5.85416 -649.75 12.9341 -631.201 18.6545C-568.989 36.5008 -517.489 33.4101 -472.064 30.6923C-457.365 29.8172 -443.453 29.0258 -430.259 28.9343C-325.693 28.5684 -234.113 54.1438 -158.064 104.963C-127.669 124.967 -99.442 148.084 -73.8407 173.942C-10.5886 238.502 33.6366 326.878 50.6806 422.755L51.6146 427.707C68.6541 523.313 83.3535 605.887 26.2822 726.068C-32.7593 850.548 -150.659 952.593 -275.464 1060.65C-337.671 1114.51 -402.003 1170.19 -458.273 1228.85C-500.135 1272.47 -550.677 1339.42 -553.428 1410.2L-553.519 1412.13C-553.894 1418.35 -553.892 1424.58 -553.513 1430.8C-553.394 1432.35 -553.241 1433.9 -553.085 1435.42C-537.752 1579.07 -371.496 1595.6 -300.123 1595.98C-216.487 1596.44 -156.692 1569.04 -93.4043 1540C-47.0352 1518.74 0.901845 1496.74 61.5538 1484.06C130.626 1469.64 189.69 1438.22 241.813 1410.51C285.883 1387.07 327.495 1364.94 367.221 1357.57C466.39 1339.15 537.389 1409.44 671.101 1658.45C678.783 1672.25 687.828 1685.25 698.1 1697.25C708.63 1709.69 718.021 1723.05 726.159 1737.17C727.353 1739.26 728.528 1741.36 729.553 1743.28C734.155 1752.12 739.4 1760.6 745.244 1768.66C753.706 1779.64 766.527 1789.7 784.239 1803.6C807.644 1821.55 830.081 1840.72 851.458 1861.04C887.461 1895.51 918.922 1923.86 946.689 1948.85C975.888 1975.14 1001.11 1997.85 1021.05 2018.54C1021.12 2018.61 1021.2 2018.67 1021.29 2018.71C1021.39 2018.75 1021.48 2018.77 1021.59 2018.77C1021.69 2018.77 1021.79 2018.76 1021.88 2018.72C1021.97 2018.68 1022.06 2018.63 1022.13 2018.56C1022.23 2018.48 1022.32 2018.38 1022.38 2018.27C1022.45 2018.16 1022.48 2018.03 1022.49 2017.9Z" fill="url(#paint7_linear_130_5804)" fill-opacity="0.4"/>
</g>
<g opacity="0.38">
<path d="M1007.58 2022.54C1007.52 2022.38 1007.41 2022.25 1007.27 2022.15C983.09 1995.4 953.996 1970.64 917.178 1939.32C893.749 1919.37 867.176 1896.77 837.117 1869.52C815.014 1849.65 791.482 1831.42 766.71 1814.99C749.84 1803.46 737.662 1795.11 729.123 1784.68C722.983 1776.64 717.52 1768.1 712.79 1759.15C711.821 1757.49 710.873 1755.78 709.893 1754.07C701.747 1740.23 692.15 1727.29 681.265 1715.49C671.615 1704.4 662.501 1693.98 653.761 1677.77C583.049 1546.5 536.991 1474.73 494.777 1430.02C449.999 1382.63 408.661 1365.1 356.551 1371.49C315.987 1376.46 274.913 1395.8 227.355 1418.2C176.302 1442.28 118.448 1469.55 51.2701 1481.93C-7.1192 1492.76 -54.49 1511.41 -100.4 1529.52C-165.841 1555.36 -227.842 1579.86 -311.49 1576.24C-379.143 1573.35 -436.96 1558.47 -478.709 1533.19C-527.897 1503.4 -553.946 1460.36 -556.166 1405.36C-556.278 1399.49 -556.026 1393.63 -555.412 1387.79L-555.178 1385.16C-552.149 1347.23 -531.85 1286.09 -453.178 1210.84C-395.966 1156.13 -330.44 1104.24 -267.095 1054.07C-135.584 949.951 -11.3753 851.615 46.0315 729.273C102.988 607.965 80.4919 522.94 56.657 432.953L55.7083 429.385C31.352 337.347 -17.2223 251.982 -81.0713 189.031C-107.136 163.656 -135.256 140.483 -165.143 119.747C-256.886 54.8042 -351.378 33.6458 -423.355 22.4659C-439.047 20.0218 -455.745 18.7535 -473.4 17.4319C-513.522 14.4197 -558.886 10.9578 -613.905 -7.1234C-632.068 -13.4896 -649.818 -20.9791 -667.052 -29.5483C-736.502 -62.4957 -785.437 -108.804 -832.743 -153.618C-856.874 -176.449 -879.669 -198.036 -904.127 -216.76C-995.795 -286.918 -1065.46 -350.651 -1127.51 -532.352C-1155.16 -613.355 -1169.55 -706.696 -1180.08 -787.263C-1195.98 -910.01 -1192.39 -1057.62 -1169.86 -1202.99C-1169.84 -1203.22 -1169.91 -1203.44 -1170.05 -1203.61C-1170.19 -1203.78 -1170.39 -1203.89 -1170.61 -1203.92C-1170.83 -1203.94 -1171.04 -1203.88 -1171.21 -1203.74C-1171.38 -1203.6 -1171.49 -1203.41 -1171.52 -1203.19C-1193.84 -1057.86 -1197.55 -910.028 -1181.6 -787.106C-1171.16 -706.414 -1156.72 -612.983 -1129.04 -531.825C-1066.87 -349.638 -997.016 -285.783 -905.044 -215.474C-880.664 -196.808 -857.899 -175.258 -833.783 -152.446C-786.384 -107.555 -737.374 -61.1535 -667.668 -28.0771C-650.368 -19.4896 -632.552 -11.9817 -614.324 -5.5967C-559.126 12.5545 -513.659 15.9937 -473.555 19.0208C-455.937 20.3722 -439.273 21.6372 -423.703 24.1186C-351.808 35.2727 -257.49 56.3276 -166.071 121.134C-136.269 141.822 -108.222 164.931 -82.215 190.225C-18.5816 252.984 29.7913 338.024 54.1062 429.82L55.0549 433.388C79.8498 526.995 101.262 607.828 44.5375 728.554C-12.7292 850.539 -136.789 948.756 -268.082 1052.73C-331.442 1102.88 -397.042 1154.83 -454.31 1209.59C-497.929 1251.33 -551.14 1315.61 -556.816 1384.99L-557.031 1387.6C-557.645 1393.51 -557.899 1399.45 -557.792 1405.38C-555.57 1461 -529.26 1504.43 -479.537 1534.58C-437.516 1560.01 -379.421 1574.98 -311.515 1577.87C-227.459 1581.47 -165.354 1556.95 -99.6166 1531.03C-53.777 1512.94 -6.41739 1494.24 51.7421 1483.5C119.127 1471.08 177.045 1443.7 228.228 1419.67C275.663 1397.31 316.685 1377.97 356.919 1373.08C408.462 1366.79 449.365 1384.11 493.73 1431.11C535.761 1475.78 581.837 1547.38 652.512 1678.53C661.323 1694.87 670.508 1705.41 680.218 1716.57C691.036 1728.3 700.574 1741.15 708.67 1754.9C709.651 1756.61 710.602 1758.29 711.553 1759.96C716.331 1768.99 721.848 1777.61 728.046 1785.73C736.753 1796.33 749.729 1805.1 765.912 1816.27C790.629 1832.65 814.104 1850.84 836.148 1870.67C866.211 1897.88 892.783 1920.48 916.227 1940.45C953.056 1971.82 982.047 1996.45 1006.17 2023.13C1006.31 2023.29 1006.51 2023.39 1006.73 2023.4C1006.95 2023.42 1007.16 2023.35 1007.32 2023.21C1007.41 2023.12 1007.48 2023.02 1007.52 2022.9C1007.57 2022.79 1007.59 2022.66 1007.58 2022.54Z" fill="url(#paint8_linear_130_5804)" fill-opacity="0.4"/>
</g>
<g opacity="0.43">
<path d="M992.708 2027.22C992.69 2027.04 992.62 2026.87 992.506 2026.74C965.988 1995.52 934.826 1970.66 895.354 1939.19C873.899 1922.07 849.641 1902.76 821.97 1879.05C799.387 1859.81 774.985 1842.81 749.109 1828.29C733.329 1819.03 720.868 1811.73 712.029 1801.58C705.486 1793.46 699.713 1784.74 694.786 1775.55L692.519 1771.67C684.396 1758.14 674.626 1745.66 663.431 1734.53C653.604 1724.14 644.206 1714.16 635.32 1697.73C573.987 1584.26 526.963 1503.78 482.243 1453.19C438.469 1403.71 397.823 1383.85 346.505 1386.83C305.206 1389.22 262.642 1406.71 213.297 1426.89C163.356 1447.42 106.796 1470.69 41.5547 1481.11C-13.9005 1489.98 -60.4041 1505.46 -105.38 1520.41C-173.802 1543.19 -238.42 1564.7 -322.875 1557.91C-390.568 1552.59 -447.979 1535.52 -488.67 1508.9C-536.425 1477.59 -560.549 1434.26 -560.355 1380.06C-560.218 1374.4 -559.725 1368.76 -558.879 1363.16L-558.476 1360.06C-551.758 1306.8 -513.959 1248.58 -449.274 1191.81C-390.92 1140.6 -323.978 1092.17 -259.218 1045.32C-121.37 945.592 8.77357 851.449 64.3433 731.866C121.164 609.478 91.3342 526.143 59.684 437.929L59.097 436.327C27.7379 348.703 -25.0323 266.652 -89.5641 205.165C-116.051 180.399 -143.999 157.243 -173.257 135.821C-261.407 69.6955 -349.007 40.3087 -406.974 20.8771L-416.84 17.5601C-436.359 10.9658 -456.68 6.482 -480.236 1.27563C-513.66 -6.14922 -551.614 -14.5046 -597.14 -31.4387C-613.454 -37.4998 -629.487 -45.3727 -646.467 -53.7032L-649.518 -55.1833C-710.096 -84.9889 -756.57 -122.512 -801.34 -158.751C-832.466 -183.946 -861.821 -207.697 -894.321 -227.547C-986.723 -283.907 -1066.54 -332.548 -1138.17 -517.89C-1168.71 -597.025 -1186.13 -689.765 -1198.97 -769.838C-1218.41 -890.72 -1217.63 -1037.93 -1196.89 -1184.3C-1196.87 -1184.42 -1196.88 -1184.54 -1196.92 -1184.65C-1196.95 -1184.77 -1197 -1184.87 -1197.08 -1184.96C-1197.15 -1185.05 -1197.24 -1185.13 -1197.34 -1185.19C-1197.45 -1185.24 -1197.56 -1185.28 -1197.68 -1185.29C-1197.79 -1185.3 -1197.91 -1185.29 -1198.02 -1185.26C-1198.13 -1185.23 -1198.23 -1185.18 -1198.32 -1185.1C-1198.41 -1185.03 -1198.49 -1184.94 -1198.54 -1184.84C-1198.6 -1184.74 -1198.63 -1184.63 -1198.64 -1184.51C-1219.51 -1037.91 -1220.27 -890.5 -1200.82 -769.447C-1187.93 -689.233 -1170.59 -596.519 -1139.91 -517.165C-1107.63 -433.633 -1072.2 -372.984 -1028.36 -326.297C-989.201 -284.598 -946.73 -257.245 -895.326 -225.915C-862.964 -206.198 -833.627 -182.432 -802.519 -157.223C-757.612 -120.85 -711.179 -83.2638 -650.204 -53.3813L-647.001 -52.0539C-629.972 -43.701 -613.891 -35.806 -597.495 -29.7191C-551.991 -12.7366 -514.044 -4.31454 -480.465 3.07649C-456.957 8.26045 -436.654 12.7593 -417.233 19.3092L-407.366 22.6263C-349.515 42.0285 -262.078 71.3638 -174.148 137.33C-144.948 158.708 -117.057 181.819 -90.6256 206.537C-26.3805 267.706 26.2594 349.557 57.5286 436.918L58.0972 438.535C89.5646 526.408 119.311 609.412 62.764 731.154C7.46392 850.276 -122.602 944.326 -260.234 1043.95C-325.013 1090.81 -391.993 1139.27 -450.383 1190.51C-515.491 1247.58 -553.434 1306.2 -560.21 1359.84L-560.613 1362.94C-561.48 1368.6 -561.98 1374.31 -562.111 1380.04C-562.288 1434.87 -537.918 1478.73 -489.657 1510.36C-448.624 1537.26 -390.994 1554.34 -323.011 1559.79C-238.222 1566.61 -173.411 1545.04 -104.815 1522.21C-59.9241 1507.27 -13.4168 1491.75 41.8419 1482.99C107.276 1472.5 163.958 1449.2 213.985 1428.65C263.096 1408.45 305.552 1391.01 346.509 1388.65C445.761 1382.9 505.335 1460.97 633.738 1698.61C642.72 1715.23 652.115 1725.24 662.113 1735.77C673.212 1746.81 682.903 1759.17 690.966 1772.59L693.215 1776.48C698.215 1785.76 704.05 1794.56 710.648 1802.78C719.684 1813.14 732.257 1820.5 748.182 1829.83C773.965 1844.31 798.282 1861.25 820.79 1880.43C848.356 1904.01 872.749 1923.48 894.203 1940.6C933.597 1972.01 964.67 1996.76 991.11 2027.92C991.186 2028.01 991.279 2028.09 991.384 2028.14C991.489 2028.19 991.604 2028.22 991.721 2028.23C991.839 2028.24 991.956 2028.22 992.067 2028.19C992.179 2028.15 992.281 2028.09 992.368 2028.01C992.49 2027.92 992.585 2027.8 992.645 2027.66C992.705 2027.52 992.726 2027.37 992.708 2027.22Z" fill="url(#paint9_linear_130_5804)" fill-opacity="0.4"/>
</g>
<g opacity="0.48">
<path d="M977.851 2031.91C977.83 2031.74 977.76 2031.57 977.649 2031.43C949.569 1996.53 919.222 1973.97 877.253 1942.77C856.713 1927.51 833.436 1910.21 806.685 1888.64C783.752 1870.1 758.615 1854.46 731.846 1842.09C716.293 1834.47 704.013 1828.46 694.812 1818.54C688.335 1811.55 682.839 1802.37 676.527 1791.83L675.043 1789.3C665.036 1772.62 655.081 1762.93 645.465 1753.56C635.358 1743.72 625.802 1734.42 616.715 1717.82C560.091 1613.31 513.235 1529.25 469.56 1476.51C426.782 1424.85 386.908 1402.7 336.171 1402.34C294.012 1402.06 249.695 1417.65 198.314 1435.71C149.725 1452.81 94.6399 1472.14 31.6495 1480.66C-20.4963 1487.69 -65.598 1500.06 -109.105 1511.91C-180.921 1531.53 -248.713 1550.04 -334.294 1539.93C-402.006 1531.81 -458.803 1512.66 -498.607 1484.56C-544.889 1451.83 -567.125 1408.07 -564.49 1354.74C-564.111 1349.23 -563.376 1343.75 -562.289 1338.33L-561.704 1334.96C-552.793 1282.99 -512.539 1226.91 -445.315 1172.77C-385.672 1124.79 -317.144 1079.51 -250.843 1035.75C-106.81 940.711 29.2354 850.91 82.6944 734.428C139.381 610.774 102.127 529.356 62.5584 443.243C24.5799 360.394 -32.3569 281.695 -97.8055 221.494C-124.216 197.234 -150.892 176.054 -174.425 157.379L-181.102 152.075C-253.376 94.6507 -323.299 58.2717 -374.356 31.6953C-387.204 25.0126 -399.332 18.6951 -409.926 12.8822C-436.213 -1.59539 -465.339 -12.1717 -499.036 -24.4097C-522.712 -33.0264 -549.562 -42.7816 -580.157 -55.5625C-593.875 -61.2408 -607.226 -68.1301 -621.416 -75.3809L-631.733 -80.6234C-682.145 -106.133 -723.459 -135.118 -763.44 -163.131C-803.423 -191.144 -841.214 -217.686 -884.527 -238.2L-892.343 -242.039C-993.125 -289.707 -1072.7 -327.351 -1148.86 -503.432C-1182.47 -581.107 -1202.65 -672.845 -1217.97 -752.359C-1240.8 -871.242 -1242.94 -1018.12 -1223.73 -1165.76C-1223.7 -1166.01 -1223.78 -1166.26 -1223.93 -1166.45C-1224.09 -1166.65 -1224.31 -1166.77 -1224.56 -1166.8C-1224.81 -1166.83 -1225.06 -1166.75 -1225.25 -1166.6C-1225.44 -1166.44 -1225.57 -1166.21 -1225.6 -1165.97C-1244.81 -1018.14 -1242.77 -871.118 -1219.8 -751.983C-1204.53 -672.339 -1184.24 -580.505 -1150.57 -502.67C-1115.52 -421.644 -1077.33 -364.498 -1030.33 -322.879C-987.876 -285.267 -941.864 -263.446 -893.081 -240.378L-885.236 -236.655C-842.053 -216.188 -804.335 -189.739 -764.402 -161.748C-724.468 -133.757 -683.143 -104.567 -632.486 -78.9806C-629.047 -77.2332 -625.613 -75.492 -622.184 -73.7571C-607.978 -66.4876 -594.543 -59.606 -580.78 -53.8721C-550.17 -41.0728 -523.287 -31.314 -499.592 -22.7123C-465.962 -10.4815 -436.917 0.0691957 -410.742 14.4839C-400.133 20.3156 -387.957 26.6549 -375.138 33.3008C-324.145 59.8365 -254.359 96.2346 -182.171 153.514L-175.494 158.818C-151.99 177.457 -125.251 198.525 -98.9821 222.837C-33.701 282.868 23.1165 361.419 60.9868 444.019C100.32 529.803 137.451 610.802 81.0297 733.723C27.8071 849.741 -108.049 939.36 -251.849 1034.27C-318.202 1078.04 -386.764 1123.32 -446.521 1171.42C-514.127 1225.81 -554.58 1282.32 -563.575 1334.76L-564.175 1338.11C-565.258 1343.61 -566.001 1349.17 -566.401 1354.76C-569.038 1408.73 -546.537 1453 -499.679 1486.19C-459.67 1514.42 -402.543 1533.65 -334.408 1541.76C-248.459 1551.91 -180.474 1533.33 -108.503 1513.68C-64.992 1501.8 -19.9829 1489.5 32.0441 1482.48C95.2792 1473.88 150.398 1454.55 199.072 1437.45C250.223 1419.48 294.418 1403.93 336.24 1404.21C386.338 1404.53 425.806 1426.52 468.197 1477.7C511.768 1530.31 558.527 1614.33 615.148 1718.72C624.38 1735.69 633.97 1744.99 644.255 1754.9C653.782 1764.16 663.643 1773.77 673.52 1790.25L675.022 1792.76C681.376 1803.39 686.871 1812.57 693.561 1819.79C702.971 1829.97 715.395 1836.05 731.127 1843.74C757.749 1856.04 782.747 1871.59 805.553 1890.04C832.349 1911.67 855.671 1929.02 876.166 1944.22C918.075 1975.35 948.348 1997.82 976.227 2032.55C976.385 2032.74 976.614 2032.87 976.865 2032.9C977.116 2032.92 977.367 2032.85 977.563 2032.69C977.668 2032.59 977.749 2032.47 977.799 2032.33C977.849 2032.2 977.867 2032.05 977.851 2031.91Z" fill="url(#paint10_linear_130_5804)" fill-opacity="0.4"/>
</g>
<g opacity="0.52">
<path d="M963.049 2036.53C963.039 2036.35 962.975 2036.18 962.866 2036.03C933.687 1997.87 903.174 1977 861.136 1947.99C840.908 1934.22 818.188 1918.48 791.474 1898.13C759.34 1873.65 734.702 1863.92 714.903 1856.03C699.472 1849.93 687.267 1845.1 677.661 1835.33C670.749 1828.29 664.889 1818.73 658.097 1807.63L657.597 1806.78C647.416 1790.15 637.288 1781.12 627.5 1772.4C617.19 1763.19 607.431 1754.51 598.255 1737.64L593.365 1728.65C479.865 1520.07 428.061 1424.89 326.068 1417.57C282.78 1414.61 236.331 1428.18 182.565 1443.93C135.63 1457.62 82.2788 1473.27 21.9109 1479.9C-26.3611 1485.18 -69.2701 1494.47 -110.792 1503.45C-186.67 1519.84 -258.326 1535.33 -345.642 1521.57C-413.503 1510.92 -469.852 1489.67 -508.569 1460.12C-553.453 1425.87 -573.703 1381.89 -568.776 1329.4C-568.152 1323.98 -567.179 1318.6 -565.866 1313.3L-565.084 1309.84C-553.984 1259.18 -511.27 1205.21 -441.508 1153.69C-380.492 1108.63 -310.192 1066.35 -242.142 1025.49C-92.0725 935.261 49.5859 850.124 100.909 736.977C157.718 611.731 113.17 533.191 66.0124 450.041C20.3531 370.439 -37.7993 298.69 -106.221 237.537C-125.497 220.439 -144.234 205.072 -162.331 190.198C-171.723 182.503 -180.528 175.16 -189.121 168.042C-243.273 122.453 -294.705 86.0832 -336.138 56.9493C-362.373 38.4038 -384.926 22.5393 -403.185 7.91748C-443.059 -24.0561 -487.572 -44.7344 -555.043 -76.1319L-563.297 -79.9843C-574.754 -85.3163 -585.904 -91.2911 -597.706 -97.6575C-603.088 -100.556 -608.514 -103.511 -614.086 -106.379C-651.934 -126.166 -685.141 -146.819 -717.225 -166.759C-768.374 -198.569 -816.705 -228.619 -874.786 -249.179C-881.882 -251.706 -888.937 -254.143 -895.962 -256.544C-993.963 -290.557 -1078.58 -319.907 -1159.66 -488.982C-1196.29 -565.38 -1219.35 -656.178 -1237.01 -734.813C-1272.55 -892.733 -1260.87 -1060.88 -1250.75 -1147.07C-1250.72 -1147.21 -1250.71 -1147.35 -1250.74 -1147.49C-1250.76 -1147.63 -1250.82 -1147.76 -1250.9 -1147.88C-1250.98 -1147.99 -1251.08 -1148.09 -1251.2 -1148.16C-1251.32 -1148.24 -1251.46 -1148.28 -1251.6 -1148.3C-1251.74 -1148.32 -1251.88 -1148.31 -1252.01 -1148.26C-1252.15 -1148.22 -1252.27 -1148.15 -1252.38 -1148.06C-1252.48 -1147.97 -1252.57 -1147.86 -1252.63 -1147.73C-1252.69 -1147.6 -1252.72 -1147.46 -1252.72 -1147.32C-1262.87 -1060.98 -1274.58 -892.564 -1238.98 -734.418C-1221.27 -655.542 -1198.13 -564.666 -1161.41 -488.09C-1079.97 -318.267 -994.983 -288.791 -896.591 -254.635C-889.57 -252.15 -882.511 -249.695 -875.416 -247.269C-817.516 -226.746 -769.312 -196.777 -718.241 -165.027C-686.138 -145.102 -652.901 -124.412 -615.065 -104.677C-609.512 -101.793 -604.066 -98.8538 -598.684 -95.9551C-586.865 -89.6034 -575.684 -83.5914 -564.197 -78.2224L-555.925 -74.385C-488.644 -43.1095 -444.075 -22.3239 -404.462 9.40182C-386.173 24.0607 -363.53 40.0365 -337.306 58.53C-295.978 87.6863 -244.519 123.975 -190.446 169.505C-181.912 176.7 -173.033 183.984 -163.64 191.678C-145.577 206.549 -126.837 221.883 -107.576 238.962C-39.3283 299.974 18.682 371.547 64.2408 450.948C111.141 533.664 155.431 611.771 99.0431 736.099C47.9824 848.7 -93.4909 933.688 -243.264 1023.68C-311.318 1064.58 -381.688 1106.88 -442.76 1151.99C-512.926 1203.8 -555.875 1258.23 -567.123 1309.31L-567.886 1312.76C-569.184 1318.19 -570.131 1323.7 -570.721 1329.26C-575.743 1382.46 -555.149 1427.02 -509.727 1461.76C-470.805 1491.45 -414.072 1512.91 -345.897 1523.61C-258.272 1537.33 -186.445 1521.82 -110.416 1505.43C-68.8715 1496.41 -26.0549 1487.19 22.0983 1481.91C82.6589 1475.22 136.003 1459.64 183.063 1445.72C236.652 1430.06 282.912 1416.52 325.766 1419.59C426.701 1426.84 478.318 1521.71 591.467 1729.62L596.358 1738.62C605.705 1755.78 615.568 1764.59 626.019 1773.9C635.715 1782.54 645.775 1791.56 655.785 1807.9L656.318 1808.76C663.152 1819.94 669.068 1829.61 676.147 1836.82C686.043 1846.88 698.393 1851.77 714.084 1857.97C733.761 1865.74 758.235 1875.43 790.168 1899.73C816.883 1920.08 839.74 1935.8 859.909 1949.64C901.879 1978.5 932.191 1999.34 961.177 2037.27C961.256 2037.37 961.355 2037.46 961.468 2037.53C961.581 2037.59 961.705 2037.63 961.834 2037.65C961.963 2037.66 962.094 2037.65 962.219 2037.62C962.344 2037.58 962.461 2037.52 962.562 2037.44C962.724 2037.35 962.858 2037.22 962.944 2037.06C963.031 2036.9 963.068 2036.71 963.049 2036.53Z" fill="url(#paint11_linear_130_5804)" fill-opacity="0.4"/>
</g>
<g opacity="0.57">
<path d="M948.06 2041.17C948.03 2040.99 947.963 2040.82 947.862 2040.66C917.791 1999.49 887.621 1980.45 845.869 1954.11C825.826 1941.44 803.091 1927.09 776.023 1907.66C742.978 1883.95 718.039 1876.38 697.991 1870.3C682.542 1865.62 670.392 1862 660.289 1852.29C652.906 1845.24 646.312 1834.65 639.93 1824.44C629.612 1807.82 619.26 1799.47 609.302 1791.37C598.787 1782.81 588.844 1774.74 579.537 1757.67C569.516 1739.3 559.96 1721.72 550.871 1704.94C457.497 1532.61 410.619 1446.09 315.689 1433.03C271.149 1426.95 222.192 1438.4 165.476 1451.73C120.366 1462.3 69.2431 1474.24 12.0032 1479.14C-31.5485 1482.83 -71.3887 1489.22 -110.068 1495.51C-191.016 1508.63 -267.343 1520.9 -356.964 1503.29C-424.924 1489.98 -480.771 1466.58 -518.423 1435.63C-561.881 1399.92 -580.24 1355.64 -572.957 1304.03C-572.052 1298.68 -570.801 1293.4 -569.215 1288.21L-568.285 1284.78C-554.892 1234.81 -510.882 1184.31 -437.503 1134.67C-374.976 1092.36 -302.717 1052.9 -232.829 1014.73C-76.993 929.627 70.1861 849.229 119.266 739.625C176.125 612.661 121.908 533.512 69.4868 456.976C20.6391 385.677 -44.7307 313.518 -114.539 253.775C-127.039 243.09 -139.292 232.939 -151.158 223.118C-167.537 209.545 -183.034 196.727 -197.027 184.224C-222.52 161.482 -246.385 140.726 -269.574 120.583C-321.505 75.4037 -366.342 36.3508 -396.529 3.11122C-433.327 -37.4368 -475.442 -67.6078 -546.535 -104.266C-555.964 -109.124 -565.101 -114.34 -574.766 -119.833C-581.836 -123.845 -589.11 -127.996 -596.537 -131.996C-619.418 -144.363 -640.786 -156.668 -661.524 -168.533C-729.097 -207.261 -787.451 -240.746 -865.099 -259.961C-875.866 -262.615 -886.65 -265.102 -897.071 -267.516C-993.192 -289.713 -1083.97 -310.655 -1170.43 -474.616C-1210.36 -550.34 -1237.21 -644.186 -1256.16 -717.485C-1296.28 -872.79 -1286.94 -1041.74 -1277.84 -1128.61C-1277.81 -1128.75 -1277.82 -1128.89 -1277.86 -1129.02C-1277.89 -1129.15 -1277.96 -1129.28 -1278.04 -1129.39C-1278.13 -1129.5 -1278.24 -1129.58 -1278.36 -1129.65C-1278.49 -1129.71 -1278.62 -1129.75 -1278.76 -1129.76C-1278.9 -1129.78 -1279.03 -1129.77 -1279.17 -1129.73C-1279.3 -1129.69 -1279.42 -1129.63 -1279.53 -1129.54C-1279.64 -1129.45 -1279.73 -1129.35 -1279.79 -1129.23C-1279.86 -1129.1 -1279.9 -1128.97 -1279.91 -1128.83C-1289.05 -1041.81 -1298.38 -872.562 -1258.19 -716.978C-1239.22 -643.542 -1212.31 -549.537 -1172.26 -473.664C-1085.42 -308.851 -994.104 -287.851 -897.519 -265.57C-887.098 -263.156 -876.313 -260.669 -865.565 -258C-788.214 -238.851 -729.953 -205.443 -662.544 -166.767C-641.838 -154.906 -620.464 -142.668 -597.505 -130.241C-590.112 -126.246 -582.837 -122.093 -575.781 -118.101C-566.087 -112.571 -556.932 -107.37 -547.473 -102.475C-476.543 -65.8681 -434.659 -35.9078 -398.043 4.45163C-367.827 37.7281 -322.941 76.8031 -270.965 122.038C-247.907 142.133 -224.041 162.889 -198.508 185.567C-184.452 198.111 -168.955 210.929 -152.595 224.517C-140.728 234.339 -128.475 244.49 -115.99 255.156C-46.3046 314.784 18.9275 386.81 67.6746 457.946C119.738 534.038 173.657 612.664 117.27 738.547C68.4408 847.553 -78.4493 927.779 -233.963 1012.72C-303.888 1050.91 -376.143 1090.49 -438.8 1132.76C-512.616 1182.68 -556.907 1233.6 -570.439 1284.07L-571.384 1287.48C-572.912 1292.85 -574.107 1298.3 -574.962 1303.81C-582.346 1356.21 -563.756 1401.15 -519.691 1437.35C-481.757 1468.51 -425.605 1492.05 -357.299 1505.45C-267.352 1523.16 -190.725 1510.78 -109.661 1497.69C-71.0894 1491.45 -31.2271 1485.01 12.2578 1481.32C69.6946 1476.47 120.877 1464.45 166.005 1453.86C222.473 1440.64 271.37 1429.12 315.487 1435.21C409.367 1448.13 456.154 1534.24 549.096 1706.03C558.178 1722.78 567.738 1740.37 577.777 1758.78C587.282 1776.21 597.381 1784.4 608.052 1793.08C617.884 1801.09 628.061 1809.35 638.23 1825.63C644.683 1835.96 651.351 1846.64 658.898 1853.9C669.299 1863.83 681.731 1867.64 697.459 1872.41C717.343 1878.43 742.104 1885.93 774.881 1909.46C801.998 1928.92 824.747 1943.28 844.839 1955.97C886.367 1982.19 916.411 2001.15 946.304 2042.1C946.385 2042.21 946.487 2042.3 946.604 2042.38C946.722 2042.45 946.852 2042.5 946.988 2042.52C947.124 2042.54 947.263 2042.53 947.396 2042.5C947.53 2042.47 947.656 2042.41 947.767 2042.33C947.927 2042.19 948.04 2042 948.093 2041.8C948.145 2041.59 948.134 2041.37 948.06 2041.17Z" fill="url(#paint12_linear_130_5804)" fill-opacity="0.4"/>
</g>
<g opacity="0.62">
<path d="M933.261 2045.94C933.245 2045.76 933.177 2045.58 933.063 2045.43C902.231 2001.46 874.069 1985.25 831.405 1960.77C811.295 1949.19 788.478 1936.07 760.758 1917.35C726.88 1894.46 701.654 1889.07 681.381 1884.76C665.884 1881.46 653.625 1878.85 643.092 1869.36C635.949 1862.9 629.464 1853.17 622.475 1842.17C611.93 1825.62 601.41 1817.88 591.268 1810.4C580.561 1802.51 570.449 1795.06 561.009 1777.82C544.567 1747.83 529.955 1720.46 515.876 1694.08C437.64 1547.54 394.586 1466.77 305.491 1448.52C259.369 1439.11 207.173 1448.32 146.872 1459.16C104.181 1466.75 55.7663 1475.38 2.16256 1478.55C-35.6736 1480.81 -71.2859 1484.69 -105.755 1488.48C-192.953 1498.11 -275.219 1507.16 -368.311 1485.24C-436.382 1469.21 -491.689 1443.65 -528.172 1411.26C-570.243 1374.13 -586.657 1329.54 -577.034 1278.79C-575.89 1273.39 -574.404 1268.07 -572.587 1262.86L-571.549 1259.68C-556.14 1211.23 -509.697 1162.77 -433.561 1115.61C-369.405 1075.89 -295.053 1039.11 -223.143 1003.49C-61.7181 923.591 90.793 848.115 137.655 742.125C162.961 685.167 166.838 635.504 150.125 586.179C135.335 542.506 106.446 504.928 73.0091 463.78C21.3396 400.273 -48.2078 331.413 -122.809 269.883C-128.735 264.981 -134.604 260.187 -140.47 255.512C-163.96 236.284 -186.13 218.128 -204.974 200.316C-295.231 114.963 -353.88 50.8178 -389.579 -1.59531C-426.865 -56.3606 -467.387 -93.1204 -529.427 -128.46C-536.925 -132.737 -544.509 -137.311 -551.821 -141.738C-560.483 -146.969 -569.517 -152.36 -578.658 -157.543C-584.668 -160.881 -590.578 -164.209 -596.411 -167.478C-683.797 -216.466 -752.81 -255.163 -855.114 -270.678C-868.971 -272.737 -882.794 -274.488 -896.149 -276.189C-995.149 -288.505 -1088.66 -300.109 -1180.88 -460.079C-1223.96 -534.826 -1253.76 -627.521 -1274.9 -699.942C-1319.49 -852.589 -1312.59 -1022.32 -1304.52 -1109.92C-1304.5 -1110.06 -1304.52 -1110.21 -1304.56 -1110.35C-1304.6 -1110.49 -1304.66 -1110.62 -1304.76 -1110.74C-1304.85 -1110.85 -1304.96 -1110.94 -1305.09 -1111.01C-1305.22 -1111.08 -1305.36 -1111.13 -1305.51 -1111.14C-1305.79 -1111.16 -1306.08 -1111.08 -1306.3 -1110.9C-1306.53 -1110.72 -1306.67 -1110.46 -1306.71 -1110.17C-1314.8 -1022.41 -1321.72 -852.356 -1277.02 -699.361C-1255.82 -626.833 -1225.98 -533.964 -1182.77 -459.016C-1089.96 -298.153 -995.986 -286.399 -896.399 -274.035C-883.022 -272.383 -869.236 -270.602 -855.394 -268.561C-753.398 -253.013 -684.619 -214.493 -597.437 -165.645C-591.59 -162.358 -585.68 -159.03 -579.669 -155.691C-570.618 -150.468 -561.684 -145.088 -552.967 -139.901C-545.606 -135.452 -538.022 -130.878 -530.51 -126.582C-468.715 -91.4727 -428.464 -54.8606 -391.365 -0.402869C-355.595 52.1363 -296.842 116.411 -206.461 201.879C-187.573 219.746 -165.3 237.88 -141.85 257.171C-136.058 261.906 -130.189 266.7 -124.204 271.524C-49.6956 332.976 19.7439 401.739 71.1755 465.103C141.893 552.023 187.9 622.709 135.515 741.133C89.0216 846.368 -63.1522 921.695 -224.236 1001.41C-296.216 1037.05 -370.587 1073.86 -434.836 1113.65C-511.331 1161 -558.149 1209.8 -573.733 1258.93L-574.763 1262.36C-576.62 1267.65 -578.138 1273.06 -579.306 1278.55C-589.076 1330.02 -572.377 1375.27 -529.801 1413.03C-492.965 1445.59 -437.211 1471.25 -368.887 1487.45C-275.317 1509.47 -192.82 1500.32 -105.441 1490.72C-70.9866 1486.92 -35.3148 1483.11 2.43196 1480.74C56.1545 1477.57 104.64 1468.92 147.402 1461.29C207.536 1450.59 259.434 1441.32 305.174 1450.67C393.233 1468.65 436.16 1549.04 513.978 1695.06C528.083 1721.5 542.699 1748.85 559.126 1778.82C568.805 1796.5 579.122 1804.09 590.015 1812.14C599.925 1819.41 610.331 1827.12 620.645 1843.31C627.753 1854.46 634.234 1864.22 641.671 1870.93C652.684 1880.83 665.155 1883.51 680.982 1886.88C701.073 1891.16 725.991 1896.43 759.601 1919.13C787.366 1937.91 810.216 1951.04 830.375 1962.64C872.745 1987.02 900.732 2003.12 931.27 2046.69C931.444 2046.93 931.704 2047.09 931.995 2047.14C932.286 2047.19 932.585 2047.13 932.829 2046.96C932.984 2046.84 933.104 2046.69 933.18 2046.51C933.256 2046.33 933.284 2046.14 933.261 2045.94Z" fill="url(#paint13_linear_130_5804)" fill-opacity="0.4"/>
</g>
<g opacity="0.67">
<path d="M918.402 2050.64C918.378 2050.45 918.317 2050.27 918.222 2050.11C886.77 2003.43 859.11 1989.14 817.327 1967.46C797.034 1956.94 774.053 1945.02 745.507 1926.9C710.826 1904.87 685.379 1901.68 664.915 1899.14C649.306 1897.18 636.95 1895.62 625.898 1886.24C619.027 1880.39 612.809 1871.79 605.001 1859.77C594.252 1843.22 583.577 1836.13 573.233 1829.27C562.335 1822.05 552.039 1815.2 542.465 1797.81C521.267 1759.29 502.609 1723.39 486.144 1691.74C419.65 1563.97 379.531 1486.84 295.348 1463.97C247.193 1450.86 191.221 1457.79 126.332 1465.74C86.5843 1470.66 41.5123 1476.21 -7.61582 1477.85C-38.1846 1478.86 -67.7935 1480.69 -96.4339 1482.47C-191.628 1488.38 -281.683 1493.97 -379.621 1467.01C-447.797 1448.2 -502.509 1420.42 -538.049 1386.82C-578.679 1348.25 -593.228 1303.44 -581.242 1253.51C-579.791 1248.04 -578.001 1242.67 -575.881 1237.42L-574.794 1234.56C-557.256 1187.51 -508.394 1141.07 -429.68 1096.47C-363.776 1059.19 -287.164 1024.95 -213.091 991.837C-46.2404 917.239 111.325 846.756 155.93 744.595C208.778 623.45 153.772 551.738 76.3786 470.585C25.6837 417.426 -46.1142 353.579 -131.246 285.972C-160.021 263.095 -189.81 239.449 -212.892 216.293C-286.915 142.097 -345.655 65.0616 -382.904 -6.41657C-412.98 -64.3898 -446.538 -111.449 -512.61 -152.786C-518.12 -156.223 -523.6 -159.775 -529.066 -163.308C-539.398 -169.972 -550.091 -176.894 -561.113 -183.278C-649.418 -234.241 -726.398 -273.819 -845.465 -281.582C-861.898 -282.636 -878.449 -283.078 -894.443 -283.509C-996.813 -286.252 -1093.47 -288.832 -1191.75 -445.724C-1238.03 -519.601 -1270.75 -611.108 -1294.09 -682.55C-1343.06 -832.561 -1338.65 -1003.1 -1331.72 -1091.48C-1331.7 -1091.63 -1331.72 -1091.79 -1331.76 -1091.94C-1331.8 -1092.08 -1331.87 -1092.22 -1331.97 -1092.34C-1332.06 -1092.46 -1332.18 -1092.56 -1332.32 -1092.63C-1332.45 -1092.7 -1332.6 -1092.75 -1332.75 -1092.76C-1333.06 -1092.79 -1333.36 -1092.7 -1333.6 -1092.51C-1333.84 -1092.32 -1333.99 -1092.04 -1334.03 -1091.73C-1341.03 -1003.26 -1345.5 -832.402 -1296.36 -682.002C-1272.97 -610.419 -1240.19 -518.753 -1193.84 -444.616C-1094.9 -286.672 -997.605 -284.09 -894.686 -281.27C-878.706 -280.857 -862.174 -280.401 -845.774 -279.351C-727.209 -271.642 -650.44 -232.138 -562.514 -181.266C-551.493 -174.883 -540.952 -168.112 -530.653 -161.452C-525.139 -157.896 -519.674 -154.363 -514.149 -150.908C-448.537 -109.84 -415.17 -63.0552 -385.258 -5.43774C-348.023 66.3263 -289.119 143.565 -214.944 217.912C-191.754 241.165 -161.92 264.867 -133.082 287.785C-48.0432 355.314 23.6767 419.101 74.297 472.168C151.099 552.699 205.68 623.807 153.411 743.663C109.531 845.21 -47.674 915.495 -214.117 989.917C-288.168 1022.98 -364.891 1057.32 -430.902 1094.65C-510.18 1139.46 -559.356 1186.31 -577.12 1233.87L-578.188 1236.71C-580.321 1242.04 -582.125 1247.5 -583.592 1253.05C-595.806 1303.68 -580.999 1349.39 -539.688 1388.53C-503.947 1422.46 -448.826 1450.37 -380.216 1469.23C-281.955 1496.33 -191.715 1490.74 -96.2457 1484.79C-67.5792 1483.08 -38.1039 1481.24 -7.51301 1480.17C41.7339 1478.53 86.843 1472.95 126.639 1468.05C191.242 1460.1 247.04 1453.21 294.723 1466.15C377.922 1488.74 417.858 1565.53 484.057 1692.75C500.429 1724.47 519.214 1760.3 540.408 1798.85C550.266 1816.75 560.784 1823.72 571.917 1831.12C582.071 1837.86 592.556 1844.83 603.044 1860.98C610.953 1873.16 617.305 1881.93 624.377 1887.95C635.954 1897.79 648.611 1899.38 664.59 1901.35C684.892 1903.84 710.001 1907.03 744.239 1928.78C772.863 1946.96 795.926 1958.9 816.234 1969.44C857.712 1990.97 885.094 2005.18 916.262 2051.35C916.438 2051.6 916.705 2051.77 917.006 2051.83C917.307 2051.88 917.617 2051.82 917.87 2051.64C918.042 2051.54 918.183 2051.39 918.277 2051.22C918.371 2051.04 918.414 2050.84 918.402 2050.64Z" fill="url(#paint14_linear_130_5804)" fill-opacity="0.4"/>
</g>
<g opacity="0.71">
<path d="M903.528 2055.31C903.519 2055.12 903.457 2054.94 903.348 2054.79C871.259 2005.57 844.28 1993.11 803.409 1974.23C778.326 1963.02 753.905 1950.39 730.264 1936.39C694.825 1915.27 669.173 1914.29 648.538 1913.47C632.785 1912.85 620.254 1912.43 608.738 1903.12C601.113 1897.06 594.027 1887.11 587.624 1877.41C576.667 1860.91 565.775 1854.42 555.243 1848.19C544.176 1841.6 533.708 1835.41 524.018 1817.83C499.36 1773.19 478.623 1731.98 460.338 1695.6C403.128 1581.83 365.348 1506.66 285.329 1479.54C234.676 1462.33 173.801 1466.62 103.334 1471.61C67.3245 1474.17 26.5283 1477.07 -17.1403 1477.3C-38.1989 1477.44 -59.1343 1477.84 -79.3572 1478.22C-185.838 1480.19 -286.221 1482.04 -391.005 1448.84C-459.299 1427.23 -513.542 1397.3 -547.872 1362.36C-587.1 1322.39 -599.775 1277.29 -585.544 1228.33C-583.776 1222.7 -581.66 1217.19 -579.209 1211.82L-578.243 1209.61C-558.737 1164.06 -507.416 1119.73 -425.878 1077.62C-358.064 1042.67 -279.066 1010.9 -202.648 980.173C-30.5868 910.991 131.932 845.642 174.265 747.291C190.626 709.241 195.743 676.058 192.559 646.167C185.463 579.528 137.014 529.198 79.8279 477.601C23.643 426.907 -47.8104 372.36 -116.887 319.593L-139.678 302.333C-173.177 276.73 -199.818 255.064 -220.945 232.593C-287.388 161.727 -340.022 79.0838 -376.143 -11.0933C-403.722 -80.4081 -434.472 -134.972 -495.658 -176.946C-499.037 -179.25 -502.427 -181.607 -505.828 -184.015C-517.921 -192.374 -530.419 -201.047 -543.344 -208.735C-631.825 -261.509 -711.58 -293.883 -835.628 -292.18C-854.4 -291.932 -873.373 -290.759 -891.701 -289.618C-997.672 -282.998 -1097.85 -276.68 -1202.39 -431.124C-1252.5 -505.095 -1289.47 -600.038 -1313.03 -664.962C-1366.33 -812.315 -1364.36 -983.579 -1358.53 -1072.63C-1358.51 -1072.79 -1358.52 -1072.95 -1358.56 -1073.11C-1358.61 -1073.26 -1358.68 -1073.4 -1358.78 -1073.53C-1358.88 -1073.65 -1359 -1073.76 -1359.14 -1073.83C-1359.29 -1073.91 -1359.44 -1073.95 -1359.6 -1073.97C-1359.92 -1074 -1360.24 -1073.91 -1360.49 -1073.71C-1360.74 -1073.51 -1360.9 -1073.21 -1360.93 -1072.89C-1366.83 -983.695 -1368.75 -811.985 -1315.34 -664.265C-1291.78 -599.189 -1254.67 -504.079 -1204.41 -429.923C-1157.13 -360.113 -1105.92 -317.006 -1047.68 -297.85C-995.61 -280.662 -942.693 -283.886 -891.531 -287.132C-873.237 -288.277 -854.296 -289.453 -835.628 -289.678C-711.599 -291.366 -635.01 -260.502 -544.626 -206.575C-531.704 -198.853 -519.344 -190.313 -507.147 -181.825C-503.796 -179.479 -500.405 -177.122 -496.977 -174.756C-436.371 -133.2 -405.7 -78.8475 -378.322 -10.0109C-342.1 80.4558 -289.298 163.361 -222.633 234.438C-201.416 257.02 -174.738 278.809 -141.072 304.43L-118.392 321.779C-49.3263 374.495 22.0638 429.001 78.1707 479.636C160.359 553.82 224.227 625.174 172.025 746.592C130.172 843.947 -31.8871 909.109 -203.489 978.104C-279.925 1008.85 -358.975 1040.63 -426.952 1075.67C-509.054 1117.99 -560.681 1162.82 -580.446 1208.88L-581.412 1211.1C-583.903 1216.54 -586.051 1222.14 -587.843 1227.86C-602.342 1277.74 -589.438 1323.69 -549.567 1364.27C-514.965 1399.51 -460.388 1429.63 -391.703 1451.39C-286.559 1484.69 -186.005 1482.82 -79.5244 1480.85C-59.2831 1480.46 -38.3662 1480.07 -17.3225 1479.92C26.4871 1479.63 67.3351 1476.72 103.378 1474.17C173.589 1469.2 234.227 1464.92 284.408 1481.95C363.539 1508.85 401.155 1583.67 458.1 1696.92C476.385 1733.29 497.118 1774.53 521.821 1819.23C531.839 1837.37 542.575 1843.74 553.932 1850.47C564.222 1856.58 574.862 1862.91 585.513 1878.95C592.109 1888.9 599.281 1898.99 607.2 1905.31C619.411 1915.06 632.281 1915.63 648.431 1916.18C668.779 1916.98 694.113 1917.95 729.009 1938.77C752.752 1952.79 777.272 1965.45 802.451 1976.68C842.92 1995.37 869.639 2007.73 901.371 2056.35C901.544 2056.62 901.817 2056.81 902.129 2056.87C902.441 2056.94 902.768 2056.88 903.038 2056.71C903.264 2056.57 903.434 2056.35 903.523 2056.1C903.611 2055.84 903.613 2055.57 903.528 2055.31Z" fill="url(#paint15_linear_130_5804)" fill-opacity="0.4"/>
</g>
<g opacity="0.76">
<path d="M888.688 2059.99C888.663 2059.8 888.596 2059.61 888.493 2059.45C855.858 2007.77 830.938 1997.69 789.647 1980.97C763.965 1971.03 738.993 1959.35 714.907 1946C678.776 1925.81 652.906 1926.98 632.132 1927.92C616.137 1928.59 603.594 1929.22 591.433 1920.1C585.04 1915.3 578.543 1907.86 569.998 1895C558.841 1878.48 547.742 1872.65 537.027 1867.02C525.784 1861.12 515.165 1855.54 505.337 1837.83C478.259 1789.01 456.453 1743.78 437.231 1703.88C387.491 1600.73 351.554 1526.18 274.945 1494.87C221.095 1472.86 157.243 1474.21 76.415 1475.91C43.7187 1476.6 9.90166 1477.33 -27.1892 1476.6L-50.8882 1476.15C-172.453 1473.96 -287.266 1471.87 -402.337 1430.66C-470.814 1406.2 -524.443 1374.04 -557.618 1337.81C-595.45 1296.51 -606.255 1251.15 -589.77 1203.06C-587.616 1197.18 -585.103 1191.44 -582.245 1185.87L-581.636 1184.62C-560.185 1140.61 -506.506 1098.22 -422.066 1058.66C-352.208 1025.92 -270.687 996.6 -191.729 968.155C-14.7157 904.445 152.497 844.287 192.396 750C245.279 625.106 174.16 555.924 83.0388 484.626C43.2707 453.391 -1.80925 421.884 -49.5889 388.462C-82.353 365.592 -116.229 341.908 -148.119 318.457C-175.107 298.596 -205.806 274.766 -228.955 248.645C-290.633 179.066 -336.612 92.528 -369.516 -15.9359C-394.604 -98.5706 -421.638 -158.412 -478.9 -201.194L-481.667 -203.268C-495.814 -213.878 -510.464 -224.847 -525.784 -234.299C-606.351 -283.985 -688.232 -314.679 -825.963 -302.913C-846.898 -301.108 -868.086 -298.063 -888.629 -295.201C-941.274 -287.62 -995.722 -279.778 -1049.52 -293.045C-1109.79 -307.909 -1163.35 -348.364 -1213.26 -416.734C-1253.94 -472.459 -1291.72 -545.77 -1332.15 -647.443C-1389.68 -792.127 -1390.31 -964.283 -1385.56 -1053.99C-1385.53 -1054.33 -1385.64 -1054.66 -1385.85 -1054.93C-1386.06 -1055.19 -1386.36 -1055.36 -1386.69 -1055.4C-1387.03 -1055.43 -1387.36 -1055.33 -1387.61 -1055.12C-1387.87 -1054.92 -1388.04 -1054.61 -1388.08 -1054.29C-1392.83 -964.335 -1392.16 -791.753 -1334.49 -646.665C-1293.96 -544.761 -1256.07 -471.236 -1215.22 -415.307C-1103.14 -261.805 -993.868 -277.549 -888.184 -292.753C-867.734 -295.692 -846.594 -298.76 -825.715 -300.52C-688.718 -312.213 -607.221 -281.729 -527.085 -232.277C-511.858 -222.902 -497.915 -212.433 -483.154 -201.401L-480.387 -199.327C-423.746 -156.899 -396.906 -97.451 -371.971 -15.2723C-338.97 93.5402 -292.849 180.33 -230.903 250.242C-207.605 276.549 -176.746 300.463 -149.665 320.402C-117.745 343.891 -83.8509 367.559 -51.0457 390.518C-3.2845 423.955 41.7468 455.288 81.5447 486.56C171.926 557.203 242.259 625.675 190.125 748.96C150.662 842.195 -16.0096 902.192 -192.511 965.704C-271.466 994.115 -353.113 1023.5 -423.059 1056.29C-508.037 1096.13 -562.145 1138.9 -583.84 1183.43L-584.449 1184.69C-587.376 1190.37 -589.947 1196.22 -592.147 1202.22C-623.852 1294.53 -554.965 1378.68 -403.203 1433.04C-287.775 1474.38 -172.769 1476.41 -50.9259 1478.68L-27.2603 1479.13C9.85634 1479.77 43.7479 1479.14 76.4627 1478.44C157.001 1476.75 220.59 1475.34 273.998 1497.22C349.748 1528.18 385.458 1602.33 434.947 1704.99C454.2 1744.92 476.02 1790.17 503.128 1839.03C513.322 1857.42 524.26 1863.17 535.856 1869.25C546.352 1874.71 557.072 1880.45 567.919 1896.4C576.714 1909.46 583.304 1917.12 589.932 1922.1C602.811 1931.77 616.512 1931.21 632.265 1930.44C652.717 1929.51 678.178 1928.36 713.669 1948.22C737.857 1961.59 762.917 1973.33 788.681 1983.34C829.448 1999.89 854.149 2009.82 886.352 2060.8C886.438 2060.95 886.552 2061.07 886.688 2061.17C886.824 2061.27 886.978 2061.34 887.142 2061.38C887.305 2061.41 887.475 2061.42 887.64 2061.39C887.805 2061.35 887.961 2061.29 888.101 2061.2C888.3 2061.07 888.46 2060.89 888.564 2060.68C888.667 2060.47 888.71 2060.23 888.688 2059.99Z" fill="url(#paint16_linear_130_5804)" fill-opacity="0.4"/>
</g>
<g opacity="0.81">
<path d="M873.814 2064.67C873.793 2064.47 873.726 2064.29 873.619 2064.12C840.485 2010.04 816.162 2001.61 775.911 1987.63C749.671 1978.99 724.166 1968.25 699.641 1955.53C662.846 1936.34 636.766 1939.59 615.8 1942.31C599.672 1944.36 586.92 1945.99 574.165 1937.04C567.587 1932.39 560.897 1924.87 552.454 1912.63C541.092 1896.11 529.806 1890.92 518.8 1885.96C507.384 1880.71 496.611 1875.78 486.663 1857.92C458.023 1806.5 435.875 1758.2 416.319 1715.61C371.045 1616.95 338.339 1545.66 264.659 1510.41C206.747 1482.67 135.237 1480.9 44.7303 1478.65C18.6851 1478.01 -8.21394 1477.29 -37.0965 1476C-167.03 1469.94 -293.758 1460.65 -413.777 1412.54C-563.643 1352.38 -629.353 1266.84 -593.995 1177.79C-591.331 1171.52 -588.294 1165.42 -584.9 1159.52C-561.603 1117.05 -505.491 1076.7 -418.12 1039.56C-346.052 1009.04 -261.767 981.981 -180.204 955.865C1.55211 897.672 173.222 842.713 210.685 752.489C263.493 625.642 182.046 556.626 86.3941 491.412C53.215 468.784 17.2012 446.424 -21.0696 422.585C-66.7202 394.161 -113.943 364.805 -156.551 334.665C-193.898 308.222 -218.708 286.67 -236.961 264.815C-311.088 175.97 -343.191 65.5817 -362.889 -20.6271C-380.468 -97.6816 -402.592 -176.936 -462.008 -225.428C-476.676 -237.815 -492.054 -249.335 -508.065 -259.931C-599.555 -318.305 -685.933 -333.395 -816.141 -313.681C-839.117 -310.204 -862.385 -305.119 -884.893 -300.189C-939.36 -288.275 -995.593 -275.979 -1051.75 -285.732C-1114.67 -296.639 -1170.96 -334.737 -1223.86 -402.231C-1266.6 -456.759 -1308.23 -531.265 -1351.11 -630.026C-1377.63 -691.045 -1420.77 -824.705 -1412.47 -1035.43C-1412.46 -1035.6 -1412.49 -1035.77 -1412.55 -1035.94C-1412.61 -1036.1 -1412.7 -1036.25 -1412.82 -1036.38C-1412.94 -1036.5 -1413.08 -1036.61 -1413.24 -1036.68C-1413.4 -1036.75 -1413.57 -1036.78 -1413.74 -1036.78C-1413.92 -1036.8 -1414.09 -1036.79 -1414.25 -1036.74C-1414.42 -1036.69 -1414.57 -1036.61 -1414.71 -1036.5C-1414.84 -1036.39 -1414.95 -1036.26 -1415.04 -1036.11C-1415.12 -1035.96 -1415.17 -1035.79 -1415.19 -1035.62C-1423.51 -824.393 -1380.17 -690.222 -1353.53 -629.121C-1310.53 -530.179 -1268.76 -455.506 -1225.94 -400.767C-1106.99 -249.105 -993.817 -273.808 -884.326 -297.778C-861.855 -302.679 -838.639 -307.752 -815.804 -311.177C-686.286 -330.762 -600.421 -315.779 -509.529 -257.808C-493.592 -247.283 -478.278 -235.843 -463.665 -223.545C-404.919 -175.582 -383.004 -96.7395 -365.452 -20.2118C-345.724 66.3384 -313.475 177.098 -239.006 266.368C-220.622 288.423 -195.656 310.094 -158.053 336.666C-115.437 366.891 -68.1286 396.239 -22.4446 424.668C15.7368 448.395 51.7918 470.844 84.9411 493.435C179.596 558.017 260.31 626.312 208.262 751.296C171.163 840.343 0.0681104 895.144 -181.073 953.117C-262.747 979.171 -347.088 1006.27 -419.219 1036.91C-507.138 1074.27 -563.754 1115.06 -587.198 1157.95C-590.652 1163.95 -593.74 1170.15 -596.444 1176.52C-632.444 1267.13 -566.211 1353.93 -414.714 1414.63C-294.304 1462.89 -167.417 1472.26 -37.1571 1478.28C-8.37118 1479.52 18.643 1480.27 44.7216 1480.91C134.961 1483.14 206.163 1484.94 263.506 1512.31C336.316 1547.16 368.843 1618.08 413.886 1716.23C433.468 1758.88 455.646 1807.23 484.327 1858.73C494.7 1877.35 505.859 1882.46 517.676 1887.9C528.271 1892.76 539.252 1897.81 550.129 1913.64C558.748 1926.14 565.65 1933.88 572.496 1938.72C586.084 1948.25 599.949 1946.49 615.992 1944.44C636.542 1941.82 662.113 1938.57 698.199 1957.46C722.856 1970.22 748.499 1980.99 774.881 1989.65C814.594 2003.45 838.407 2011.75 871.205 2065.03C871.296 2065.18 871.415 2065.31 871.555 2065.41C871.696 2065.52 871.856 2065.59 872.026 2065.63C872.195 2065.67 872.372 2065.68 872.544 2065.66C872.717 2065.63 872.883 2065.57 873.033 2065.48C873.214 2065.41 873.377 2065.3 873.512 2065.16C873.646 2065.02 873.749 2064.85 873.814 2064.67Z" fill="url(#paint17_linear_130_5804)" fill-opacity="0.4"/>
</g>
<g opacity="0.86">
<path d="M858.954 2069.36C858.931 2069.17 858.872 2068.98 858.778 2068.8C825.121 2012.37 801.438 2005.53 762.18 1994.23C735.347 1987.01 709.253 1977.29 684.245 1965.18C646.747 1946.85 620.596 1952.33 599.504 1956.67C583.164 1960.05 570.263 1962.75 556.915 1953.96C550.222 1949.44 543.153 1941.98 534.941 1930.25C523.361 1913.73 511.873 1909.16 500.719 1904.77C489.145 1900.21 478.277 1895.83 468.156 1877.87C438.748 1825.27 416.652 1774.45 397.227 1729.72C357.271 1637.67 325.682 1564.96 254.538 1525.81C191.441 1491.17 109.748 1485.73 6.37938 1478.94C-10.7657 1477.85 -28.5062 1476.64 -46.842 1475.3C-155.981 1467.33 -297.604 1450.9 -425.073 1394.33C-544.946 1341.13 -587.445 1284.24 -602.021 1245.91C-613.695 1215.29 -612.329 1183.81 -598.188 1152.52C-595.257 1146.32 -591.946 1140.3 -588.276 1134.51C-563.238 1093.6 -504.671 1055.24 -414.291 1020.59C-339.938 992.071 -252.689 967.449 -168.236 943.522C17.9708 890.899 193.823 841.177 228.993 755.116C242.156 723.176 246.225 694.832 243.528 669.489C235.347 592.743 164.482 542.909 89.797 498.374C59.6145 480.381 27.6146 462.783 -6.32549 444.214C-60.4639 414.565 -116.558 383.775 -164.904 350.901C-201.663 325.907 -227.08 303.715 -244.89 281.045C-312.052 195.474 -338.056 83.2279 -356.14 -25.3543C-371.097 -115.224 -389.221 -200.046 -445.084 -249.657C-459.333 -262.649 -474.484 -274.616 -490.424 -285.468C-577.737 -343.085 -666.327 -353.986 -806.414 -324.374C-831.359 -319.099 -856.622 -311.83 -881.062 -304.827C-937.343 -288.647 -995.509 -271.929 -1054.01 -278.183C-1119.59 -285.205 -1178.67 -321.034 -1234.64 -387.73C-1279.88 -441.65 -1325.47 -517.277 -1370.19 -612.485C-1436.02 -751.189 -1441.87 -925.279 -1439.48 -1016.75C-1439.47 -1016.93 -1439.51 -1017.11 -1439.57 -1017.28C-1439.64 -1017.45 -1439.73 -1017.61 -1439.86 -1017.74C-1439.99 -1017.87 -1440.14 -1017.98 -1440.3 -1018.05C-1440.47 -1018.12 -1440.65 -1018.16 -1440.83 -1018.17C-1441.2 -1018.17 -1441.55 -1018.03 -1441.81 -1017.78C-1442.08 -1017.53 -1442.23 -1017.18 -1442.24 -1016.81C-1444.59 -925.168 -1438.58 -750.656 -1372.68 -611.335C-1327.89 -515.882 -1282.19 -440.125 -1236.75 -385.946C-1110.87 -235.918 -993.684 -269.584 -880.286 -302.157C-855.913 -309.167 -830.725 -316.376 -805.846 -321.659C-666.586 -351.124 -578.561 -340.318 -491.958 -283.167C-476.126 -272.386 -461.074 -260.503 -446.911 -247.607C-391.726 -198.61 -373.767 -114.297 -358.919 -24.9793C-340.771 83.9479 -314.662 196.628 -247.094 282.666C-229.109 305.591 -203.495 327.991 -166.497 353.128C-118.025 386.084 -61.9275 416.841 -7.6812 446.585C26.1622 465.11 58.2105 482.731 88.3781 500.705C137.706 530.136 187.362 563.086 216.08 604.736C246.247 648.453 249.642 697.298 226.403 754.058C191.753 838.907 16.5871 888.383 -168.907 940.829C-253.39 964.72 -340.714 989.401 -415.203 1017.94C-507.456 1053.33 -564.811 1090.96 -590.547 1133.01C-594.308 1138.92 -597.699 1145.05 -600.7 1151.37C-615.225 1183.4 -616.545 1215.54 -604.612 1246.9C-589.835 1285.71 -546.882 1343.23 -426.098 1396.77C-298.15 1453.45 -156.319 1469.98 -46.9646 1477.99C-28.5668 1479.33 -10.8451 1480.51 6.29021 1481.64C109.31 1488.37 190.672 1493.74 253.286 1528.16C323.638 1566.82 355.049 1639.15 394.873 1730.7C414.309 1775.48 436.36 1826.25 465.91 1879.1C476.52 1898.01 487.782 1902.49 499.865 1907.2C510.625 1911.47 521.745 1915.86 532.841 1931.7C541.258 1943.71 548.479 1951.48 555.547 1956.13C569.859 1965.54 583.951 1962.62 600.257 1959.24C620.825 1954.89 646.476 1949.5 683.179 1967.53C708.337 1979.71 734.589 1989.5 761.586 1996.75C800.134 2007.89 823.423 2014.62 856.539 2070.12C856.63 2070.27 856.751 2070.41 856.895 2070.52C857.039 2070.63 857.203 2070.7 857.378 2070.75C857.552 2070.79 857.734 2070.8 857.912 2070.77C858.09 2070.75 858.261 2070.68 858.415 2070.59C858.602 2070.45 858.749 2070.26 858.843 2070.05C858.937 2069.83 858.975 2069.6 858.954 2069.36Z" fill="url(#paint18_linear_130_5804)" fill-opacity="0.4"/>
</g>
<g opacity="0.9">
<path d="M844.094 2074.06C844.082 2073.85 844.016 2073.65 843.903 2073.48C809.728 2014.66 786.639 2009.35 748.394 2000.56C721.056 1994.85 694.422 1986.18 668.965 1974.69C630.83 1957.24 604.484 1964.83 583.305 1970.92C566.749 1975.67 553.636 1979.54 539.687 1970.84C532.65 1966.53 525.6 1959.21 517.467 1947.85C505.653 1931.3 493.959 1927.38 482.661 1923.54C471.364 1919.69 459.893 1915.9 449.722 1897.76C420.229 1845.02 398.768 1792.71 379.906 1746.52C344.362 1659.46 313.683 1584.28 244.473 1541.32C174.46 1497.81 78.9823 1488.24 -41.8965 1476.14L-56.5125 1474.69C-158.803 1464.35 -307.666 1438.93 -436.369 1376.12C-556.78 1317.43 -597.451 1258.65 -610.428 1219.77C-620.711 1188.94 -618.016 1157.82 -602.47 1127.29C-599.221 1121.11 -595.593 1115.14 -591.607 1109.4C-564.477 1069.46 -505.211 1034.17 -410.431 1001.5C-333.527 975.018 -243.091 952.651 -155.659 931.024C34.6792 883.954 214.439 839.506 247.304 757.708C270.678 699.712 265.707 650.274 232.051 606.466C199.687 564.303 143.744 531.653 93.2744 505.275C64.161 490.052 32.3492 474.773 1.64484 460.036C-58.8757 430.947 -121.47 400.872 -173.17 367.127C-210.094 343.029 -235.374 320.817 -252.727 297.2C-317.097 210.359 -335.735 87.857 -349.354 -30.1125C-361.252 -133.393 -375.388 -223.039 -428.032 -273.806C-441.804 -287.44 -456.714 -299.873 -472.601 -310.97C-555.227 -367.387 -649.076 -374.362 -796.489 -335.012C-823.33 -327.847 -850.494 -318.316 -876.813 -309.099C-934.968 -288.728 -995.13 -267.628 -1055.99 -270.454C-1124.18 -273.55 -1186.19 -307.178 -1245.2 -373.171C-1292.98 -426.538 -1341.38 -501.152 -1389.04 -594.938C-1458.76 -731.223 -1467.35 -905.999 -1466.27 -998.036C-1466.26 -998.226 -1466.29 -998.415 -1466.36 -998.592C-1466.43 -998.769 -1466.53 -998.93 -1466.67 -999.066C-1466.8 -999.202 -1466.96 -999.31 -1467.13 -999.383C-1467.31 -999.456 -1467.49 -999.493 -1467.68 -999.491C-1467.87 -999.495 -1468.06 -999.461 -1468.24 -999.392C-1468.41 -999.323 -1468.57 -999.219 -1468.71 -999.088C-1468.84 -998.956 -1468.95 -998.799 -1469.02 -998.625C-1469.1 -998.452 -1469.14 -998.265 -1469.14 -998.077C-1470.21 -905.717 -1461.59 -730.466 -1391.68 -593.736C-1343.89 -499.716 -1295.35 -424.902 -1247.34 -371.291C-1114.38 -222.844 -993.131 -265.333 -875.87 -306.411C-849.677 -315.557 -822.476 -325.117 -795.739 -332.26C-649.249 -371.355 -556.095 -364.523 -474.224 -308.628C-458.475 -297.616 -443.69 -285.287 -430.027 -271.774C-378.12 -221.695 -364.078 -132.584 -352.286 -29.8893C-338.628 88.5069 -319.859 211.362 -255.116 298.817C-237.555 322.694 -212.03 345.135 -174.823 369.433C-122.963 403.263 -60.2906 433.397 0.326535 462.53C31.0607 477.304 62.8391 492.579 91.9191 507.799C142.118 534.029 197.745 566.475 229.751 608.195C262.71 651.099 267.653 699.706 244.703 756.598C212.406 837.055 33.3248 881.322 -156.268 928.22C-243.8 949.836 -334.329 972.277 -411.285 998.775C-506.662 1031.64 -566.405 1067.29 -593.912 1107.75C-597.988 1113.56 -601.708 1119.61 -605.053 1125.86C-621.076 1157.05 -623.777 1188.99 -613.221 1220.58C-600.053 1260.04 -558.894 1319.47 -437.702 1378.59C-308.534 1441.64 -159.33 1467.19 -56.8983 1477.48L-42.3009 1478.94C78.2253 1491.02 173.395 1500.62 242.847 1543.69C311.309 1586.22 341.861 1661.01 377.219 1747.62C396.139 1793.88 417.515 1846.35 447.11 1899.25C457.873 1918.32 469.991 1922.39 481.7 1926.33C492.629 1929.98 503.9 1933.75 515.156 1949.52C523.445 1961.16 530.833 1968.78 538.202 1973.32C553.258 1982.56 567.548 1978.44 584.195 1973.62C604.923 1967.65 630.708 1960.24 667.877 1977.25C693.512 1988.82 720.34 1997.56 747.878 2003.29C786.617 2012.2 807.971 2017.14 841.539 2074.86C841.731 2075.19 842.042 2075.43 842.407 2075.53C842.772 2075.63 843.162 2075.58 843.493 2075.4C843.701 2075.25 843.866 2075.04 843.972 2074.81C844.077 2074.57 844.119 2074.31 844.094 2074.06Z" fill="url(#paint19_linear_130_5804)" fill-opacity="0.4"/>
</g>
<g opacity="0.95">
<path d="M829.284 2078.78C829.25 2078.57 829.185 2078.38 829.093 2078.2C794.462 2017.18 773.271 2013.55 734.817 2007C706.926 2002.91 679.67 1995.29 653.708 1984.31C614.908 1967.85 588.426 1977.48 567.151 1985.23C550.362 1991.35 537.095 1996.17 522.483 1987.82C515.286 1983.73 507.933 1976.41 500.02 1965.51C487.987 1948.96 476.038 1945.67 464.498 1942.51C452.958 1939.35 441.406 1936.14 431.076 1917.92C401.646 1865.67 381.969 1814.07 362.878 1764.06C329.905 1677.92 301.592 1603.52 234.168 1556.71C161.683 1506.38 63.8616 1490.68 -66.4234 1473.98C-203.258 1456.41 -342.231 1414.12 -447.7 1357.93C-568.383 1293.64 -607.281 1233.16 -618.783 1193.61C-627.715 1162.64 -623.646 1131.79 -606.673 1101.97C-603.112 1095.85 -599.172 1089.96 -594.873 1084.34C-566.084 1045.93 -504.43 1012.62 -406.488 982.442C-326.832 958.012 -233.072 937.882 -142.368 918.503C51.7784 877 235.16 837.813 265.691 760.241C277.077 731.287 281.008 705.463 278.521 682.087C270.687 608.692 199.482 559.345 96.6528 512.166C67.4256 498.772 35.8643 485.549 5.3545 472.76C-60.2093 445.288 -128.025 416.913 -181.625 383.232C-218.022 360.509 -243.905 337.624 -260.754 313.267C-324.269 221.803 -334.078 85.3658 -342.686 -35.0186C-351.137 -152.327 -361.521 -246.18 -411.055 -298.199C-424.379 -312.419 -439.046 -325.318 -454.851 -336.717C-534.515 -392.863 -630.657 -395.522 -786.638 -345.895C-815.348 -336.769 -844.406 -324.891 -872.508 -313.416C-932.622 -288.846 -994.769 -263.465 -1058.03 -262.9C-1128.94 -262.25 -1193.64 -293.651 -1255.85 -358.893C-1306.22 -411.678 -1357.48 -485.216 -1408.02 -577.624C-1481.59 -711.453 -1492.95 -886.901 -1493.18 -979.587C-1493.18 -979.783 -1493.22 -979.977 -1493.29 -980.159C-1493.36 -980.34 -1493.47 -980.506 -1493.61 -980.645C-1493.75 -980.784 -1493.91 -980.895 -1494.09 -980.97C-1494.27 -981.045 -1494.46 -981.083 -1494.66 -981.083C-1495.05 -981.078 -1495.43 -980.919 -1495.71 -980.639C-1495.99 -980.359 -1496.14 -979.981 -1496.14 -979.587C-1495.94 -886.633 -1484.52 -710.621 -1410.63 -576.199C-1359.9 -483.602 -1308.55 -409.802 -1258.02 -356.846C-1118.06 -209.907 -992.684 -261.025 -871.542 -310.624C-843.492 -322.087 -814.49 -333.92 -785.839 -342.969C-630.856 -392.282 -535.497 -389.724 -456.681 -334.177C-441.011 -322.915 -426.469 -310.159 -413.261 -296.089C-364.334 -244.863 -354.06 -151.562 -345.651 -34.799C-336.964 85.9491 -327.117 222.813 -263.133 314.936C-246.048 339.623 -219.875 362.793 -183.129 385.723C-129.32 419.51 -61.4119 447.964 4.26703 475.465C34.7768 488.254 66.3046 501.474 95.5282 514.9C229.561 576.413 309.357 641.482 263.016 759.191C233.011 835.18 50.5572 874.231 -142.866 915.609C-233.64 935.015 -327.512 955.082 -407.231 979.624C-505.762 1010.09 -567.935 1043.66 -597.15 1082.57C-601.521 1088.3 -605.525 1094.3 -609.137 1100.54C-626.643 1131.06 -630.81 1162.66 -621.597 1194.47C-600.634 1266.97 -516.219 1324.82 -449.1 1360.55C-343.329 1416.93 -204.041 1459.27 -66.7791 1476.95C63.0716 1493.6 160.526 1509.27 232.482 1559.17C299.111 1605.52 327.344 1679.4 360.049 1765.06C379.225 1815.06 398.881 1866.86 428.456 1919.32C439.394 1938.64 451.736 1942.04 463.67 1945.31C474.716 1948.35 486.197 1951.59 497.556 1967.19C505.734 1978.45 513.396 1986.05 520.957 1990.36C536.763 1999.4 551.372 1994.05 568.12 1987.99C589.992 1980.03 614.786 1971 652.505 1986.99C678.663 1998.07 706.126 2005.77 734.231 2009.91C771.772 2016.31 792.484 2019.84 826.417 2079.65C826.614 2079.99 826.938 2080.24 827.32 2080.35C827.701 2080.45 828.108 2080.4 828.453 2080.21C828.713 2080.07 828.929 2079.87 829.076 2079.61C829.223 2079.36 829.295 2079.07 829.284 2078.78Z" fill="url(#paint20_linear_130_5804)" fill-opacity="0.4"/>
</g>
<path d="M814.381 2083.41C814.35 2083.21 814.285 2083.02 814.19 2082.84C779.074 2019.58 758.458 2017.35 721.08 2013.2C700.419 2010.91 674.695 2008.09 638.365 1993.79C598.933 1978.33 572.331 1990 550.93 1999.37C526.093 2010.21 508.388 2018.07 482.468 1983.05C470.216 1966.49 458.061 1963.86 446.304 1961.3C434.546 1958.74 422.919 1956.23 412.484 1937.87C383.589 1886.79 364.769 1833.97 346.626 1782.87C317.445 1700.57 289.794 1622.71 223.975 1572.17C153.238 1517.87 56.664 1494.09 -76.2227 1473.32C-299.894 1438.35 -572.627 1313.31 -622.17 1182.91C-638.439 1139.94 -630.402 1098.37 -598.211 1059.3C-532.4 979.514 -327.023 942.153 -128.405 906.019C69.1635 870.06 255.814 836.112 284.041 762.804C300.128 721.039 300.546 684.744 285.632 651.722C249.508 572.354 126.053 527.402 6.66248 483.939C-105.948 442.951 -222.396 400.567 -268.611 329.469C-326.388 240.588 -331.054 105.199 -335.471 -25.6342C-339.68 -148.703 -343.652 -264.917 -394.161 -322.282C-478.751 -418.294 -582.475 -427.573 -776.968 -356.511C-807.594 -345.293 -838.394 -331.069 -868.253 -317.266C-930.379 -288.637 -994.503 -258.89 -1060.16 -254.967C-1133.78 -250.639 -1201.27 -279.791 -1266.68 -344.331C-1332.66 -409.407 -1390.35 -497.568 -1427.06 -559.962C-1504.42 -691.346 -1518.64 -867.543 -1520.2 -960.846C-1520.2 -961.049 -1520.24 -961.25 -1520.32 -961.437C-1520.4 -961.623 -1520.52 -961.792 -1520.67 -961.932C-1520.81 -962.073 -1520.99 -962.182 -1521.18 -962.254C-1521.37 -962.326 -1521.57 -962.36 -1521.77 -962.352C-1522.18 -962.346 -1522.57 -962.179 -1522.86 -961.886C-1523.14 -961.594 -1523.3 -961.201 -1523.29 -960.793C-1521.72 -867.201 -1507.49 -690.462 -1429.79 -558.466C-1392.9 -495.817 -1335.04 -407.433 -1268.84 -342.098C-1121.45 -196.786 -992.144 -256.64 -866.953 -314.438C-837.132 -328.211 -806.328 -342.468 -775.88 -353.604C-582.848 -424.131 -480.045 -415.088 -396.531 -320.223C-346.744 -263.68 -342.785 -147.974 -338.61 -25.5179C-334.111 105.797 -329.459 241.625 -271.249 331.195C-224.467 403.149 -107.532 445.72 5.47515 486.785C124.264 530.031 247.065 574.777 282.692 652.959C297.37 685.194 296.906 720.825 281.084 761.706C253.558 833.383 67.7341 867.184 -128.877 902.892C-328.107 939.212 -534.052 976.665 -600.539 1057.39C-633.567 1097.32 -641.787 1139.95 -625.118 1183.91C-570.763 1327.31 -271.681 1445.82 -76.7639 1476.29C55.7178 1496.9 151.806 1520.64 221.906 1574.57C287.012 1624.52 314.476 1701.92 343.544 1783.86C361.866 1835.18 380.686 1888.15 409.783 1939.41C420.881 1958.97 433.467 1961.68 445.637 1964.34C456.778 1966.81 468.409 1969.29 479.968 1984.91C507.348 2021.9 527.136 2013.21 552.159 2002.23C574.112 1992.59 598.976 1981.68 637.222 1996.69C673.961 2011.12 699.919 2013.96 720.747 2016.27C757.141 2020.3 777.186 2022.51 811.477 2084.32C811.678 2084.68 812.012 2084.94 812.407 2085.06C812.803 2085.17 813.228 2085.13 813.591 2084.93C813.854 2084.78 814.068 2084.56 814.208 2084.29C814.348 2084.02 814.408 2083.72 814.381 2083.41Z" fill="url(#paint21_linear_130_5804)" fill-opacity="0.4"/>
</g>
<defs>
<radialGradient id="paint0_radial_130_5804" cx="0" cy="0" r="1" gradientUnits="userSpaceOnUse" gradientTransform="translate(366.5 333.337) rotate(86.9422) scale(496.779 420.233)">
<stop stop-color="white" stop-opacity="0.66"/>
<stop offset="1" stop-color="white" stop-opacity="0"/>
</radialGradient>
<linearGradient id="paint1_linear_130_5804" x1="251.227" y1="789.459" x2="-56.1056" y2="388.727" gradientUnits="userSpaceOnUse">
<stop stop-color="#4990FF"/>
<stop offset="1" stop-color="#FF5F8A"/>
</linearGradient>
<linearGradient id="paint2_linear_130_5804" x1="231.446" y1="799.68" x2="-75.3511" y2="399.089" gradientUnits="userSpaceOnUse">
<stop stop-color="#4990FF"/>
<stop offset="1" stop-color="#FF5F8A"/>
</linearGradient>
<linearGradient id="paint3_linear_130_5804" x1="211.572" y1="810.157" x2="-94.6859" y2="409.676" gradientUnits="userSpaceOnUse">
<stop stop-color="#4990FF"/>
<stop offset="1" stop-color="#FF5F8A"/>
</linearGradient>
<linearGradient id="paint4_linear_130_5804" x1="191.629" y1="820.493" x2="-114.093" y2="420.087" gradientUnits="userSpaceOnUse">
<stop stop-color="#4990FF"/>
<stop offset="1" stop-color="#FF5F8A"/>
</linearGradient>
<linearGradient id="paint5_linear_130_5804" x1="171.696" y1="830.786" x2="-133.432" y2="430.491" gradientUnits="userSpaceOnUse">
<stop stop-color="#4990FF"/>
<stop offset="1" stop-color="#FF5F8A"/>
</linearGradient>
<linearGradient id="paint6_linear_130_5804" x1="151.734" y1="841.211" x2="-152.766" y2="441.038" gradientUnits="userSpaceOnUse">
<stop stop-color="#4990FF"/>
<stop offset="1" stop-color="#FF5F8A"/>
</linearGradient>
<linearGradient id="paint7_linear_130_5804" x1="131.729" y1="851.5" x2="-172.185" y2="451.346" gradientUnits="userSpaceOnUse">
<stop stop-color="#4990FF"/>
<stop offset="1" stop-color="#FF5F8A"/>
</linearGradient>
<linearGradient id="paint8_linear_130_5804" x1="111.634" y1="861.953" x2="-191.631" y2="461.842" gradientUnits="userSpaceOnUse">
<stop stop-color="#4990FF"/>
<stop offset="1" stop-color="#FF5F8A"/>
</linearGradient>
<linearGradient id="paint9_linear_130_5804" x1="91.5102" y1="872.445" x2="-211.085" y2="472.359" gradientUnits="userSpaceOnUse">
<stop stop-color="#4990FF"/>
<stop offset="1" stop-color="#FF5F8A"/>
</linearGradient>
<linearGradient id="paint10_linear_130_5804" x1="80.1068" y1="875.93" x2="-221.955" y2="475.97" gradientUnits="userSpaceOnUse">
<stop stop-color="#4990FF"/>
<stop offset="1" stop-color="#FF5F8A"/>
</linearGradient>
<linearGradient id="paint11_linear_130_5804" x1="71.8055" y1="876.825" x2="-229.777" y2="477.02" gradientUnits="userSpaceOnUse">
<stop stop-color="#4990FF"/>
<stop offset="1" stop-color="#FF5F8A"/>
</linearGradient>
<linearGradient id="paint12_linear_130_5804" x1="65.2707" y1="876.449" x2="-235.879" y2="476.797" gradientUnits="userSpaceOnUse">
<stop stop-color="#4990FF"/>
<stop offset="1" stop-color="#FF5F8A"/>
</linearGradient>
<linearGradient id="paint13_linear_130_5804" x1="61.7248" y1="873.617" x2="-239.009" y2="474.225" gradientUnits="userSpaceOnUse">
<stop stop-color="#4990FF"/>
<stop offset="1" stop-color="#FF5F8A"/>
</linearGradient>
<linearGradient id="paint14_linear_130_5804" x1="61.5521" y1="867.841" x2="-238.879" y2="468.7" gradientUnits="userSpaceOnUse">
<stop stop-color="#4990FF"/>
<stop offset="1" stop-color="#FF5F8A"/>
</linearGradient>
<linearGradient id="paint15_linear_130_5804" x1="63.1059" y1="861.25" x2="-237.042" y2="462.408" gradientUnits="userSpaceOnUse">
<stop stop-color="#4990FF"/>
<stop offset="1" stop-color="#FF5F8A"/>
</linearGradient>
<linearGradient id="paint16_linear_130_5804" x1="65.2897" y1="853.583" x2="-234.582" y2="455.076" gradientUnits="userSpaceOnUse">
<stop stop-color="#4990FF"/>
<stop offset="1" stop-color="#FF5F8A"/>
</linearGradient>
<linearGradient id="paint17_linear_130_5804" x1="68.136" y1="845.26" x2="-231.455" y2="447.121" gradientUnits="userSpaceOnUse">
<stop stop-color="#4990FF"/>
<stop offset="1" stop-color="#FF5F8A"/>
</linearGradient>
<linearGradient id="paint18_linear_130_5804" x1="82.573" y1="828.295" x2="-217.038" y2="430.619" gradientUnits="userSpaceOnUse">
<stop stop-color="#4990FF"/>
<stop offset="1" stop-color="#FF5F8A"/>
</linearGradient>
<linearGradient id="paint19_linear_130_5804" x1="97.2959" y1="810.86" x2="-202.3" y2="413.697" gradientUnits="userSpaceOnUse">
<stop stop-color="#4990FF"/>
<stop offset="1" stop-color="#FF5F8A"/>
</linearGradient>
<linearGradient id="paint20_linear_130_5804" x1="112.201" y1="793.119" x2="-187.395" y2="396.447" gradientUnits="userSpaceOnUse">
<stop stop-color="#4990FF"/>
<stop offset="1" stop-color="#FF5F8A"/>
</linearGradient>
<linearGradient id="paint21_linear_130_5804" x1="127.157" y1="775.414" x2="-172.424" y2="379.244" gradientUnits="userSpaceOnUse">
<stop stop-color="#4990FF"/>
<stop offset="1" stop-color="#FF5F8A"/>
</linearGradient>
</defs>
</svg>
