<svg width="33" height="33" viewBox="0 0 33 33" fill="none" xmlns="http://www.w3.org/2000/svg">
<path d="M2.39907 0.0550728C1.27197 0.246107 0.253121 1.29043 0.0620862 2.44937C-0.0206954 2.93969 -0.0206954 7.42264 0.0620862 7.91296C0.19581 8.74077 0.813489 9.60043 1.57126 10.008C2.27809 10.39 1.53942 10.3709 16.3 10.3709C31.0606 10.3709 30.322 10.39 31.0288 10.008C31.7865 9.60043 32.4042 8.74077 32.538 7.91296C32.6207 7.42264 32.6207 2.93969 32.538 2.44937C32.3469 1.25859 31.3344 0.246107 30.1437 0.0550728C29.6852 -0.0213404 2.84482 -0.0149727 2.39907 0.0550728ZM5.58935 3.08615C5.90137 3.30266 5.92048 3.43638 5.92048 5.18117C5.92048 6.93868 5.90137 7.05967 5.57662 7.27618C5.22639 7.50542 4.68512 7.33349 4.52593 6.94505C4.47498 6.81769 4.45588 6.26369 4.46862 5.06018L4.48772 3.3536L4.69786 3.16894C4.93347 2.95243 5.34737 2.91422 5.58935 3.08615ZM8.51855 3.07342C8.86241 3.25172 8.88151 3.36634 8.88151 5.18117C8.88151 6.98963 8.86878 7.07241 8.53128 7.26981C8.18105 7.47995 7.68436 7.35259 7.4997 7.00873C7.43602 6.88774 7.41691 6.44199 7.41691 5.15569C7.41691 3.64652 7.42965 3.44275 7.52517 3.30266C7.74804 2.99064 8.17468 2.89512 8.51855 3.07342ZM11.6006 3.16894L11.8107 3.3536L11.8298 5.06018C11.8425 6.26369 11.8234 6.81769 11.7725 6.94505C11.5433 7.49268 10.7473 7.52452 10.4671 6.98963C10.3334 6.72218 10.3334 3.63379 10.4735 3.36634C10.6963 2.93969 11.2376 2.84418 11.6006 3.16894ZM22.9162 3.87576C23.1582 3.99675 23.3301 4.16231 23.5339 4.48071C23.6294 4.62717 23.6548 4.78636 23.6548 5.18117C23.6548 5.62691 23.6357 5.72243 23.4765 5.95804C22.8589 6.91958 21.4261 6.84953 20.9231 5.83705C20.4009 4.79273 21.2287 3.59558 22.3749 3.72294C22.5468 3.74204 22.7888 3.80572 22.9162 3.87576ZM27.0871 3.77388C27.9786 4.04133 28.3925 5.00287 27.9786 5.83705C27.4755 6.84953 26.0428 6.91958 25.4251 5.95804C25.2659 5.72243 25.2468 5.62691 25.2468 5.18117C25.2468 4.78636 25.2723 4.62717 25.3678 4.48071C25.648 4.04769 25.9154 3.84392 26.3293 3.74204C26.6286 3.67199 26.7623 3.67836 27.0871 3.77388Z" fill="#FFAB0A"/>
<path d="M1.98519 11.2881C1.0746 11.632 0.476021 12.2497 0.144894 13.1857C0.0430091 13.4914 0.0302734 13.7652 0.0302734 16.2932C0.0302734 18.8213 0.0430091 19.0951 0.144894 19.4007C0.482388 20.3623 1.1128 20.9927 2.06797 21.3238C2.43094 21.4512 2.59014 21.4512 16.3 21.4512C30.01 21.4512 30.1691 21.4512 30.5321 21.3238C31.4873 20.9927 32.1177 20.3623 32.4552 19.4007C32.5571 19.0951 32.5698 18.8213 32.5698 16.2932C32.5698 13.7652 32.5571 13.4914 32.4552 13.1857C32.1177 12.2242 31.4873 11.5938 30.5321 11.2627C30.1691 11.1353 30.01 11.1353 16.2746 11.1417H2.38637L1.98519 11.2881ZM5.60848 14.211C5.88866 14.3829 5.9205 14.5994 5.9205 16.2805C5.9205 17.1593 5.89503 17.9489 5.86319 18.0317C5.64669 18.5857 4.86345 18.6557 4.56416 18.1463C4.46864 17.9871 4.45591 17.7515 4.45591 16.2932C4.45591 14.8414 4.46864 14.5994 4.56416 14.4402C4.76793 14.0963 5.25188 13.9881 5.60848 14.211ZM8.59499 14.2492C8.88791 14.4593 8.91975 14.7204 8.90064 16.4206C8.88154 18.1781 8.86244 18.2545 8.41669 18.4392C8.21292 18.522 8.14924 18.5283 7.93273 18.4519C7.79264 18.401 7.62071 18.28 7.55066 18.1845C7.42331 18.0126 7.41694 17.9298 7.41694 16.2996C7.41694 14.7586 7.42968 14.5803 7.53156 14.4211C7.7608 14.0709 8.24476 13.9881 8.59499 14.2492ZM11.4223 14.16C11.8235 14.3511 11.8426 14.4402 11.8426 16.2932C11.8426 17.7515 11.8298 17.9871 11.7343 18.1463C11.435 18.6557 10.6518 18.5857 10.4353 18.0317C10.4034 17.9489 10.378 17.1593 10.378 16.2805C10.378 14.3765 10.4034 14.2874 10.9511 14.1091C11.1166 14.0518 11.2122 14.0645 11.4223 14.16ZM22.7825 14.9305C23.3237 15.1534 23.6867 15.6947 23.6867 16.2932C23.6867 17.1211 23.0436 17.7578 22.2094 17.7578C21.407 17.7515 20.7575 17.0956 20.7575 16.2932C20.7575 15.7392 21.1205 15.1725 21.6108 14.9496C21.9292 14.8032 22.4641 14.7968 22.7825 14.9305ZM27.2909 14.9496C27.6029 15.0897 27.9977 15.5355 28.0805 15.8411C28.227 16.3697 28.1251 16.8472 27.7812 17.2484C26.9025 18.2736 25.2214 17.656 25.215 16.306C25.215 15.4718 25.8518 14.8286 26.6796 14.8286C26.8834 14.8286 27.1381 14.8796 27.2909 14.9496Z" fill="#FFAB0A"/>
<path d="M2.30993 22.3113C1.18919 22.5533 0.246753 23.5467 0.0620862 24.6738C-0.0206954 25.1641 -0.0206954 29.647 0.0620862 30.1374C0.253121 31.3281 1.2656 32.3406 2.45639 32.5317C2.96581 32.6144 29.6342 32.6144 30.1437 32.5317C31.3344 32.3406 32.3469 31.3281 32.538 30.1374C32.6207 29.647 32.6207 25.1641 32.538 24.6738C32.4042 23.846 31.7865 22.9863 31.0288 22.5788C30.322 22.1967 31.067 22.2158 16.2682 22.2222C5.09266 22.2222 2.63468 22.2413 2.30993 22.3113ZM5.57662 25.3106C5.90137 25.5271 5.92048 25.6481 5.92048 27.4056C5.92048 29.1504 5.90137 29.2841 5.58935 29.5006C5.34737 29.6725 4.93347 29.6343 4.69786 29.4178L4.48772 29.2331L4.46862 27.552C4.45588 26.6351 4.46862 25.8073 4.48772 25.7245C4.50682 25.6417 4.61508 25.4889 4.72333 25.387C4.9462 25.1768 5.31554 25.145 5.57662 25.3106ZM8.53128 25.3169C8.86878 25.5143 8.88151 25.5971 8.88151 27.4056C8.88151 29.2204 8.86241 29.335 8.51855 29.5133C8.16195 29.698 7.68436 29.577 7.51243 29.2459C7.37871 29.0039 7.37234 25.82 7.4997 25.578C7.68436 25.2341 8.18105 25.1068 8.53128 25.3169ZM11.5242 25.336C11.8298 25.5525 11.8489 25.6863 11.8298 27.5266L11.8107 29.2331L11.6006 29.4178C11.365 29.6343 10.9511 29.6725 10.7091 29.5006C10.3971 29.2841 10.3779 29.1504 10.3779 27.4056C10.3779 26.3485 10.4034 25.7245 10.448 25.6353C10.6518 25.2278 11.1676 25.0813 11.5242 25.336ZM22.5405 25.9792C22.9289 26.0683 23.2664 26.2976 23.4765 26.6287C23.6357 26.8643 23.6548 26.9598 23.6548 27.4056C23.6548 27.9341 23.6039 28.0742 23.2791 28.4435C22.9608 28.8065 22.324 28.9721 21.8209 28.8129C21.3943 28.6855 21.1141 28.4499 20.9231 28.0615C20.5091 27.2273 20.9422 26.2339 21.84 25.9983C22.1966 25.8964 22.1966 25.8964 22.5405 25.9792ZM27.0362 25.9919C27.9531 26.2339 28.4052 27.2145 27.9786 28.0615C27.7876 28.4499 27.5074 28.6855 27.0807 28.8129C26.5777 28.9721 25.9409 28.8065 25.6225 28.4435C25.2977 28.0742 25.2468 27.9341 25.2468 27.4056C25.2468 26.9598 25.2659 26.8643 25.4187 26.6351C25.6289 26.3039 25.9154 26.1002 26.2911 25.9983C26.6668 25.8964 26.6605 25.8964 27.0362 25.9919Z" fill="#FFAB0A"/>
</svg>
