<svg width="30" height="39" viewBox="0 0 30 39" fill="none" xmlns="http://www.w3.org/2000/svg">
<path d="M13.0379 0.122637C9.13918 0.780863 5.77209 3.27032 4.05057 6.78086C3.35015 8.21546 2.96196 9.5488 2.8185 11.0087C2.76787 11.591 2.75099 11.6247 2.39656 11.9201C2.19403 12.0973 1.94087 12.3927 1.83116 12.5868C1.65395 12.9328 1.64551 13.0087 1.64551 15.515C1.64551 18.3336 1.64551 18.342 2.18559 18.9159C3.1223 19.937 4.91133 19.6838 5.51893 18.4517L5.73834 18.0129V15.515V13.0171L5.51893 12.5699C5.37547 12.2914 5.1645 12.0298 4.9704 11.8948C4.59909 11.6416 4.59909 11.6247 4.76787 10.5361C5.47673 6.17327 8.98728 2.6796 13.3586 1.97074C18.9873 1.05935 24.3206 4.89057 25.2658 10.5277C25.4514 11.6163 25.443 11.6416 25.0717 11.9032C24.8691 12.0382 24.6666 12.2914 24.5231 12.5868L24.2953 13.0425L24.3122 15.6838C24.3206 18.7049 24.4134 18.3589 23.4599 18.8399C22.5569 19.2956 21.3923 19.6416 20.194 19.8188C19.6455 19.8948 19.6286 19.8863 19.3586 19.6501C19.0126 19.3547 18.6075 19.2788 17.443 19.3294C16.4725 19.3631 16.2362 19.456 15.9493 19.9285C15.7383 20.2661 15.7299 20.8484 15.924 21.169C16.2025 21.6416 16.5653 21.7598 17.7637 21.7598C18.886 21.7598 19.0295 21.726 19.4514 21.3378C19.6624 21.1522 19.8312 21.0931 20.4472 21.0087C21.9999 20.7977 23.6793 20.2239 24.7426 19.5488C25.2236 19.2366 25.2236 19.2366 25.502 19.38C25.9156 19.591 26.8607 19.5741 27.2995 19.3378C27.6961 19.1269 28.0168 18.7977 28.2362 18.3842C28.3797 18.1142 28.3966 17.861 28.3966 15.515C28.3966 13.0171 28.3881 12.9328 28.2109 12.5952C28.1096 12.4011 27.8565 12.0973 27.6539 11.9201L27.2826 11.591L27.1814 10.7387C26.5569 5.34626 22.3459 0.991835 16.9198 0.114197C15.9831 -0.0377026 13.9577 -0.0377026 13.0379 0.122637Z" fill="#5FC33B"/>
<path d="M14.0928 3.91171C14.0253 3.92858 13.6878 3.98765 13.3418 4.03828C10.557 4.49398 8.40506 6.3674 7.47679 9.14377C7.09705 10.283 6.9789 11.2366 7.02954 12.8569C7.1308 15.9286 8.02532 18.3336 10.135 21.1438C10.5063 21.6332 10.8608 22.1396 10.9283 22.2661C11.3165 23.0256 11.2405 23.9201 10.7342 24.4771C10.3544 24.899 9.94093 25.1353 8.80169 25.591C7.16456 26.2493 4.68354 27.5742 3.00422 28.6965C2.01688 29.3632 0.886076 30.494 0.523207 31.186C0.194093 31.802 0 32.6374 0 33.4054C0 34.4265 0.329114 35.2535 1.03797 35.9961C2.49789 37.5404 5.51899 38.418 10.4557 38.7303C12.6076 38.8653 19.6962 38.7809 21.3333 38.6037C26.346 38.0552 28.8608 37.0341 29.7384 35.186C29.9916 34.6459 30 34.5868 30 33.4898C30 32.1817 29.8903 31.7345 29.3924 30.8822C28.4304 29.245 25.9325 27.5995 22.1181 26.1142C20.2363 25.3716 19.4177 24.8737 19.1055 24.2746C19.038 24.1396 18.9873 23.802 18.9873 23.456V22.8737L17.6203 22.84C16.0591 22.8062 15.8143 22.7303 15.2489 22.1058C14.2194 20.9666 14.5148 19.2535 15.865 18.5109L16.3291 18.2577H17.7637C19.1814 18.2577 19.2068 18.2577 19.6118 18.494C20.0591 18.7471 20.0506 18.7471 21.1224 18.494C21.7637 18.3505 21.7637 18.359 22.1941 17.2282C23.2574 14.494 23.4177 11.5995 22.6498 9.16909C22.2532 7.90327 21.7553 7.06782 20.8523 6.11423C19.9156 5.13533 18.6667 4.43491 17.1983 4.07204C16.7173 3.9539 14.4051 3.83575 14.0928 3.91171Z" fill="#5FC33B"/>
</svg>
