<svg width="35" height="35" viewBox="0 0 35 35" fill="none" xmlns="http://www.w3.org/2000/svg">
<path d="M2.3584 0.0976562C1.78418 0.241211 1.35352 0.487305 0.916016 0.924805C0.47168 1.36914 0.198242 1.85449 0.0751953 2.44922C0.0273438 2.68164 0 3.78906 0 5.50488V8.20508H17.5H35V5.50488C35 3.75488 34.9727 2.68164 34.9248 2.44922C34.6719 1.27344 33.7217 0.323242 32.5527 0.0771484C31.999 -0.0390625 2.82324 -0.0185547 2.3584 0.0976562ZM5.67383 4.24023C5.98145 4.39746 6.2207 4.78711 6.2207 5.12891C6.2207 5.64844 5.71484 6.1543 5.18848 6.1543C4.87402 6.1543 4.4502 5.8877 4.2998 5.59375C4.04688 5.10156 4.2041 4.56152 4.68945 4.26758C5.01758 4.06934 5.31836 4.0625 5.67383 4.24023ZM9.77539 4.24023C10.083 4.39746 10.3223 4.78711 10.3223 5.12891C10.3223 5.64844 9.81641 6.1543 9.29004 6.1543C8.97559 6.1543 8.55176 5.8877 8.40137 5.59375C8.14844 5.10156 8.30566 4.56152 8.79102 4.26758C9.11914 4.06934 9.41992 4.0625 9.77539 4.24023ZM13.877 4.24023C14.1846 4.39746 14.4238 4.78711 14.4238 5.12891C14.4238 5.64844 13.918 6.1543 13.3916 6.1543C13.0771 6.1543 12.6533 5.8877 12.5029 5.59375C12.25 5.10156 12.4072 4.56152 12.8926 4.26758C13.2207 4.06934 13.5215 4.0625 13.877 4.24023ZM30.2832 4.24023C30.5908 4.39746 30.8301 4.78711 30.8301 5.12891C30.8301 5.4707 30.5908 5.86035 30.2832 6.01758C30.0234 6.14746 29.8867 6.1543 26.7217 6.1543C23.4404 6.1543 23.4336 6.1543 23.1602 6.00391C22.4697 5.61426 22.4629 4.67773 23.1465 4.26758L23.4131 4.10352H26.7148C29.8867 4.10352 30.0234 4.11035 30.2832 4.24023Z" fill="#FF75F9"/>
<path d="M0 21.1582C0 29.0195 0.0205078 32.1572 0.0751953 32.417C0.328125 33.5928 1.27148 34.5361 2.44727 34.7891C2.95996 34.8984 32.0332 34.8984 32.5527 34.7891C33.7148 34.543 34.6787 33.5723 34.9248 32.417C34.9795 32.1572 35 28.876 35 21.1582V10.2549H17.5H0V21.1582ZM21.0547 13.4678C21.3623 13.625 21.6016 14.0146 21.6016 14.3564C21.6016 14.541 15.832 28.1514 15.3398 29.1357C15.1553 29.498 14.793 29.7373 14.417 29.7373C13.918 29.7373 13.3984 29.2178 13.3984 28.7119C13.3984 28.582 14.6016 25.6904 16.4473 21.377C18.1221 17.46 19.5645 14.1172 19.6465 13.9463C19.9199 13.3926 20.5146 13.1943 21.0547 13.4678ZM11.8262 16.5439C12.127 16.7012 12.373 17.0908 12.373 17.4258C12.373 17.8906 12.2158 18.0547 10.0352 19.791C8.87988 20.7207 7.92969 21.5068 7.92969 21.5342C7.92969 21.5615 8.87988 22.3477 10.0352 23.2773C12.2158 25.0137 12.373 25.1777 12.373 25.6426C12.373 26.3672 11.5254 26.8867 10.8965 26.5381C10.7803 26.4766 9.49512 25.4717 8.0459 24.3096C5.3252 22.1357 5.19531 22.0059 5.19531 21.5342C5.19531 21.0625 5.3252 20.9326 8.0459 18.7588C9.49512 17.5967 10.7803 16.5918 10.8965 16.5303C11.1836 16.373 11.498 16.3799 11.8262 16.5439ZM24.1035 16.5303C24.2197 16.5918 25.5049 17.5967 26.9541 18.7588C29.6748 20.9326 29.8047 21.0625 29.8047 21.5342C29.8047 22.0059 29.6748 22.1357 26.9541 24.3096C25.5049 25.4717 24.2197 26.4766 24.1035 26.5381C23.4746 26.8867 22.627 26.3672 22.627 25.6426C22.627 25.1777 22.7842 25.0137 24.9648 23.2773C26.1201 22.3477 27.0703 21.5615 27.0703 21.5342C27.0703 21.5068 26.1201 20.7207 24.9648 19.791C23.4404 18.5742 22.8184 18.041 22.7432 17.8701C22.3262 17.002 23.2764 16.0723 24.1035 16.5303Z" fill="#FF75F9"/>
</svg>
